<svg width="81" height="100" viewBox="0 0 81 100" fill="none" xmlns="http://www.w3.org/2000/svg">
<path d="M46.7578 42.511L47.6484 45.7082L48.1014 47.3366L55.9206 75.4199C55.9206 75.4199 57.8011 74.7769 60.2531 73.7114C60.7327 73.503 61.2349 73.2786 61.7485 73.0397C65.5774 71.2614 70.0744 68.6792 71.1694 65.9856C72.8055 61.9583 67.9379 46.9123 63.3927 41.8858C61.3103 39.5811 55.222 40.4385 51.0182 41.3828C50.5482 41.4874 50.1015 41.5941 49.6873 41.6979C47.9398 42.1328 46.7578 42.511 46.7578 42.511Z" fill="white"/>
<path d="M65.4176 70.4662C63.5965 66.3726 62.0654 62.7228 60.8084 59.6007C60.8756 59.4193 60.9517 59.1906 61.0192 58.9312C61.1225 58.5331 61.2056 58.062 61.2056 57.5761C61.2056 57.3187 61.1823 57.0571 61.1268 56.8002C61.1176 56.7583 61.1077 56.7165 61.0967 56.675C61.0928 56.6595 61.0886 56.6435 61.0843 56.6275C60.6093 54.8833 59.3831 54.4164 58.7334 54.292C57.5125 51.0661 56.7638 48.8813 56.4497 47.9398C56.7475 47.8122 57.1599 47.6325 57.6657 47.4039C60.1757 50.0499 61.7758 53.5268 62.8117 56.6914C62.5287 56.9352 62.3788 57.3109 62.4325 57.6969C62.5082 58.2389 62.6317 58.9854 62.8223 59.7907C62.9429 60.3011 63.0907 60.8357 63.27 61.356C63.7762 62.8252 64.5352 64.1849 65.6556 64.5964C66.0581 64.7446 66.4843 64.8134 66.9144 64.8134C67.3975 64.8134 67.8852 64.7265 68.3492 64.566C68.3513 64.5653 68.3535 64.5645 68.3556 64.5638C68.3559 64.5638 68.3567 64.5635 68.357 64.5635C69.3035 64.2345 70.1494 63.6011 70.652 62.7806C70.7167 62.6742 70.7737 62.5597 70.8232 62.4378C70.9601 63.907 70.8964 65.0597 70.6124 65.7587C69.9404 67.4119 67.8385 69.0477 65.4176 70.4662ZM68.4783 54.2796C68.2318 53.0259 67.8972 51.6818 67.4933 50.3065C68.0065 51.5514 68.4939 52.8692 68.9402 54.2286C68.9034 54.225 68.8659 54.2229 68.8288 54.2229C68.7125 54.2229 68.5943 54.2413 68.4783 54.2796Z" fill="#B9AFBE"/>
<path d="M47.4951 42.914L56.3261 74.6347C58.9051 73.6897 68.98 69.7758 70.6126 65.7587C71.3072 64.0492 70.6851 59.6281 69.0274 54.4959C67.3283 49.235 64.999 44.558 62.948 42.2898C60.5755 39.6661 51.4711 41.7152 47.4951 42.914ZM55.5119 76.1968L46.0234 42.114L46.5755 41.9375C46.7131 41.8932 49.9952 40.8482 53.7425 40.2357C58.9292 39.3875 62.3259 39.8065 63.8393 41.4802C68.5814 46.7248 73.4466 61.9806 71.7267 66.2135C69.6555 71.3099 56.6663 75.8019 56.1142 75.9905L55.5119 76.1968Z" fill="#371A45"/>
<path d="M68.3987 54.3095L63.1144 56.5046C62.6426 56.7006 62.3617 57.1901 62.4325 57.697C62.6917 59.5533 63.5123 63.8089 65.6556 64.5965C67.4346 65.2505 69.6825 64.3629 70.6513 62.7813C71.7346 61.0119 70.5657 56.958 69.8898 54.9829C69.6797 54.369 68.9971 54.061 68.3987 54.3095Z" fill="white"/>
<path d="M68.357 64.5636C69.3031 64.2346 70.1491 63.6012 70.6513 62.7814C70.7164 62.6747 70.7737 62.5598 70.8232 62.4375C70.8232 62.4379 70.8232 62.4379 70.8232 62.4379C70.7737 62.5598 70.7167 62.6743 70.652 62.7806C70.1494 63.6012 69.3034 64.2346 68.357 64.5636ZM63.27 61.3561C63.0907 60.8357 62.9429 60.3012 62.8223 59.7908C62.9429 60.3016 63.0907 60.8357 63.27 61.3561Z" fill="#8C7B94"/>
<path d="M70.8232 62.4378C70.8232 62.4378 70.8232 62.4378 70.8232 62.4375C70.9371 62.156 71.011 61.8356 71.0521 61.4882C71.011 61.8359 70.9371 62.1564 70.8232 62.4378Z" fill="#371A45"/>
<path d="M66.9154 64.8135C66.4853 64.8131 66.0584 64.7444 65.6559 64.5962C64.5355 64.1847 63.7761 62.8253 63.27 61.3561C63.0907 60.8358 62.9429 60.3016 62.8223 59.7908C62.632 58.9859 62.5085 58.2394 62.4332 57.6978C62.4123 57.5538 62.4208 57.4128 62.4541 57.2795C62.8799 59.1117 63.7514 62.5152 64.7735 62.5148C64.8488 62.5148 64.9252 62.4964 65.0023 62.4574C65.2701 62.3213 65.3737 61.4429 65.3737 61.4429C65.3737 61.4429 66.4075 62.2727 67.6383 62.2727C68.5278 62.2727 69.5206 61.8392 70.2997 60.3455C70.6241 59.7242 70.7747 58.8902 70.7326 57.9388C71.0014 59.1517 71.1733 60.4338 71.0538 61.4741C71.0534 61.4749 71.0534 61.4756 71.0534 61.4763C71.0531 61.478 71.0531 61.4798 71.0527 61.4819C71.0527 61.483 71.0524 61.4844 71.0524 61.4855C71.0524 61.4865 71.052 61.4876 71.052 61.4883C71.011 61.8357 70.9371 62.1561 70.8232 62.4376C70.7737 62.5598 70.7164 62.6747 70.6513 62.7814C70.1491 63.6012 69.3031 64.2346 68.357 64.5636C68.3563 64.5636 68.3559 64.5639 68.3556 64.5639C68.3534 64.5646 68.3513 64.5654 68.3492 64.5661C67.8855 64.7263 67.3982 64.8135 66.9154 64.8135Z" fill="#B9AFBE"/>
<path d="M68.8295 54.8259C68.762 54.8259 68.6941 54.8394 68.6294 54.8664L63.345 57.0619C63.1258 57.1526 62.9956 57.3798 63.0282 57.6134C63.5237 61.1615 64.5833 63.5605 65.8629 64.0308C67.3307 64.5703 69.289 63.8536 70.1385 62.4659C70.8116 61.3667 70.506 58.6424 69.3212 55.1786C69.2738 55.0407 69.1751 54.9319 69.0428 54.8724C68.9745 54.8412 68.902 54.8259 68.8295 54.8259ZM66.9151 65.4153C66.4125 65.4157 65.9156 65.3342 65.4487 65.1626C63.0816 64.2928 62.1698 60.1644 61.837 57.7807C61.7284 57.0027 62.1592 56.2491 62.8846 55.9478L68.1685 53.7527C68.6064 53.5705 69.1054 53.5783 69.5376 53.7732C69.9694 53.9685 70.3051 54.3382 70.4589 54.7877C71.4061 57.5563 72.2974 61.2452 71.1638 63.0968C70.2832 64.5349 68.5696 65.4153 66.9151 65.4153Z" fill="#371A45"/>
<path d="M68.518 64.9999C68.3793 64.9719 68.3036 64.945 68.206 64.9123C68.1151 64.8801 68.026 64.8457 67.9415 64.8064C67.7696 64.7309 67.6065 64.6447 67.4513 64.5487C67.1418 64.3558 66.8511 64.1393 66.5989 63.888C66.0836 63.3956 65.6793 62.815 65.3723 62.2018C65.2252 61.892 65.0837 61.5819 64.9759 61.2607C64.8528 60.9424 64.7675 60.627 64.6742 60.3058C64.5847 59.9854 64.5065 59.6607 64.4446 59.3318C64.4149 59.1666 64.3873 59.0014 64.3679 58.8334C64.3491 58.6619 64.3332 58.5038 64.3399 58.3106C64.3428 58.2227 64.4163 58.1543 64.5037 58.1571C64.5858 58.1599 64.6508 58.2248 64.6565 58.3049L64.6576 58.3223C64.666 58.4563 64.695 58.6229 64.7276 58.7742C64.7601 58.9291 64.8015 59.0833 64.8446 59.2371C64.9331 59.5445 65.0378 59.8482 65.1527 60.1485C65.2708 60.4455 65.3868 60.7535 65.528 61.0335C65.6563 61.3228 65.8141 61.5943 65.9729 61.8615C66.3025 62.3893 66.7075 62.8597 67.1761 63.2276C67.406 63.418 67.6606 63.569 67.9178 63.6976C68.0469 63.7614 68.1795 63.8157 68.3114 63.8589C68.3775 63.8823 68.443 63.9 68.508 63.9163C68.5664 63.9309 68.6485 63.9461 68.6707 63.9468C68.9657 63.9546 69.1984 64.2006 69.1906 64.4962C69.1829 64.7918 68.9374 65.0251 68.6424 65.0173C68.612 65.0162 68.582 65.013 68.5533 65.0073L68.518 64.9999Z" fill="#371A45"/>
<path d="M54.9362 43.8867C55.575 43.574 56.2141 43.282 56.8617 42.9966C57.5085 42.7124 58.1611 42.4387 58.8228 42.1832C59.4849 41.9272 60.1526 41.6816 60.8391 41.4707C61.5263 41.2598 62.2231 41.0666 62.9679 40.9521C63.2965 40.9018 63.6038 41.1279 63.6541 41.4572C63.7043 41.7865 63.479 42.0945 63.1504 42.1449C63.1366 42.147 63.1232 42.1484 63.1097 42.1498L63.1037 42.1502C62.4554 42.2034 61.7842 42.337 61.1185 42.4926C60.4511 42.6478 59.7859 42.841 59.1231 43.0455C58.4599 43.2501 57.8007 43.4744 57.145 43.7098C56.4899 43.9455 55.8339 44.1919 55.1919 44.4527L55.1888 44.4538C55.03 44.5183 54.8492 44.4418 54.7849 44.2826C54.7233 44.1305 54.7916 43.9579 54.9362 43.8867Z" fill="#371A45"/>
<path d="M24.642 45.771C25.3073 47.2718 26.2608 48.7591 26.5639 49.5506L25.0017 52.31L23.2308 55.4356C22.3392 55.5388 21.4829 55.616 20.6582 55.6653C5.91048 56.5787 1.57519 49.4396 1.09041 46.0251C0.130878 39.2653 3.97536 34.9767 5.75203 33.2317C6.02224 32.9669 6.32641 32.7004 6.66276 32.4349C12.5282 27.8036 27.8796 23.4693 32.3182 29.6411C34.8191 33.1155 33.0932 39.0664 25.3232 41.4158C23.4197 41.9904 23.8063 43.8899 24.642 45.771Z" fill="white"/>
<path d="M18.1844 55.14C7.85272 55.14 3.37922 50.7762 2.06958 47.3805C4.10235 50.4572 9.81811 53.5998 12.7508 53.5998C13.1834 53.5998 13.5547 53.5318 13.8455 53.385C14.4778 53.0653 14.9588 52.6832 15.2513 52.5833C15.3083 52.5641 15.3624 52.5553 15.4144 52.5553C15.6234 52.5553 15.8002 52.6953 16.01 52.8353C16.2193 52.9753 16.462 53.1153 16.8022 53.1153C16.8284 53.1153 16.8553 53.1146 16.8825 53.1128C17.5944 53.0682 17.7051 51.9346 18.2007 51.9346C18.2325 51.9346 18.2654 51.9392 18.3004 51.9491C18.6346 52.0424 19.0233 52.6502 19.4679 52.9781C19.4244 53.0958 19.4173 53.2284 19.4555 53.3577C19.4597 53.3723 19.6355 53.9706 19.9061 55.1013C19.3144 55.1275 18.7414 55.14 18.1844 55.14Z" fill="#B9AFBE"/>
<path d="M18.1021 56.3522C13.035 56.3522 8.88418 55.3388 5.72053 53.3234C2.31418 51.1531 0.787313 48.1742 0.494255 46.1098C-0.212749 41.1287 1.41453 36.6512 5.33113 32.8011C9.01858 29.176 18.8381 25.4358 25.9722 26.0462C29.1556 26.3184 31.4549 27.4094 32.8066 29.288C34.0258 30.9827 34.3169 33.1612 33.606 35.2656C32.5828 38.2923 29.6271 40.7441 25.4961 41.9925C21.0631 43.3323 15.8959 45.5608 15.278 46.8248C15.2493 46.8836 15.2416 46.9244 15.2465 46.9375C15.3657 47.2484 15.2111 47.5971 14.901 47.7166C14.5908 47.8361 14.2431 47.6808 14.1236 47.3699C14.033 47.1339 13.9726 46.7553 14.1979 46.2942C15.4149 43.8048 24.752 40.9582 25.1488 40.8384C28.9027 39.7038 31.5698 37.5316 32.4664 34.8789C33.0514 33.1484 32.8197 31.3676 31.8309 29.9934C30.6934 28.4125 28.6881 27.4885 25.8696 27.2474C19.1596 26.6729 9.60675 30.2869 6.17359 33.6617C2.54503 37.2286 1.03503 41.3594 1.6853 45.9401C2.23541 49.8157 7.43198 56.6627 23.1622 54.8366C23.4904 54.7972 23.7907 55.0351 23.8289 55.3658C23.8671 55.6968 23.6305 55.996 23.3005 56.0343C21.4737 56.2462 19.74 56.3522 18.1021 56.3522Z" fill="#371A45"/>
<path d="M79.5916 27.8688C79.3861 28.9584 78.949 30.1401 78.2643 31.3768C73.2604 40.4208 55.7038 47.5993 55.7038 47.5993C55.7038 47.5993 56.7005 50.7334 58.8583 56.3079C58.9081 56.4384 58.9598 56.5688 59.0114 56.7021C59.6777 58.4137 60.4498 60.3455 61.3315 62.4776C62.3639 64.9737 63.548 67.7466 64.892 70.763C68.1186 78.0145 70.8957 87.5774 70.8957 87.5774C70.8957 87.5774 78.6045 90.2025 78.4952 94.976C78.4896 95.2305 78.462 95.4917 78.4086 95.7579C77.5024 100.347 59.839 99.3861 58.3582 97.2129C56.5841 94.6112 55.8693 92.359 54.1197 88.4022C52.8238 85.4726 51.4526 82.4463 48.4353 79.9934C45.0234 77.48 39.4137 77.452 35.7878 77.7869C30.5749 78.2701 29.7141 81.4988 29.0587 83.8382C27.9651 87.7319 28.6209 95.7529 24.9118 98.0409C22.8842 99.2925 6.175 101.229 5.20274 95.4807C5.00574 94.3124 5.21299 93.3341 5.6466 92.5231C7.07157 89.853 10.9468 88.9746 10.9468 88.9746C10.9468 88.9746 10.5592 82.6816 10.9415 79.2204C11.8844 70.6655 22.5001 66.7442 22.5001 66.7442C22.5001 66.7442 22.463 65.9155 22.0622 63.2354C21.5667 59.9237 21.0461 57.3692 20.6581 55.6653C20.2857 54.0401 20.0332 53.1859 20.0332 53.1859L19.0521 50.3063L18.4982 48.6789L24.642 45.771L47.8875 34.7686C48.643 34.2983 49.4819 33.7421 50.3859 33.1279C57.2656 28.4504 67.9478 20.4227 74.9973 21.4219C78.5896 21.9313 80.2378 24.4532 79.5916 27.8688Z" fill="white"/>
<path d="M56.6305 55.0612C54.85 53.5385 52.0592 54.6639 51.831 53.3698C51.6867 52.5506 54.2396 51.7499 53.4343 50.2045C52.63 48.659 48.7127 49.6239 48.7792 48.3765C48.8315 47.4202 50.9525 47.5677 52.4136 47.1806C53.8742 46.7935 51.6277 44.7051 51.4721 44.0227C51.3776 43.6123 51.6691 43.4956 52.224 43.4956C52.5862 43.4956 53.0608 43.5453 53.6139 43.5949C54.1675 43.6442 54.7991 43.6938 55.4757 43.6938C55.7777 43.6938 56.089 43.6839 56.4059 43.6598C66.902 42.8626 74.9114 34.1082 78.5872 29.2465C78.369 29.8413 78.0853 30.4555 77.7376 31.084C72.8951 39.838 55.6508 46.97 55.4771 47.0409L54.9629 47.2515L55.1312 47.7821C55.1461 47.8282 55.9305 50.2807 57.5773 54.6362C57.2738 54.7844 56.9576 54.9258 56.6305 55.0612Z" fill="#B9AFBE"/>
<path d="M15.1828 98.7863C12.491 98.7863 9.78816 98.4879 7.91508 97.6372C6.66588 97.0697 5.95287 96.3101 5.79548 95.3793C5.66745 94.6229 5.73359 93.9565 5.93165 93.3706C6.36632 94.2021 7.3018 95.0184 9.12678 95.5994C11.4791 96.3473 14.52 96.8354 17.3279 96.8354C21.085 96.8354 24.4244 95.9617 25.1382 93.6701C26.3849 89.6672 25.5693 85.9897 25.6153 82.5717C25.6521 79.8555 25.3228 76.3272 27.076 75.2539C27.245 75.1504 27.4215 75.109 27.6051 75.109C27.98 75.109 28.3863 75.2819 28.8292 75.4549C29.2723 75.6279 29.7519 75.8009 30.2736 75.8009C30.3666 75.8009 30.4607 75.7952 30.5558 75.7835C31.9864 75.6031 32.0063 72.3353 33.016 72.2893C33.0323 72.2886 33.0485 72.2882 33.0645 72.2882C34.2578 72.2882 34.105 74.4412 36.6773 75.3075C37.5159 75.5896 38.822 75.7551 40.2523 75.7551C42.8366 75.7551 45.8273 75.2153 47.2049 73.8496C47.6399 73.4182 47.9522 73.242 48.1789 73.242C49.0164 73.242 48.69 75.6481 49.1147 76.469C49.3694 76.9617 49.8101 77.1329 50.3385 77.1329C50.9387 77.1329 51.6524 76.9124 52.3368 76.6916C53.0208 76.4708 53.6754 76.25 54.1571 76.25C54.4995 76.25 54.7549 76.3616 54.8712 76.664C55.1414 77.3669 54.1303 79.9572 54.6187 82.99C55.2291 86.7841 57.5832 93.2706 62.2649 95.6873C63.8649 96.5135 66.8694 97.0289 69.9475 97.0289C72.9117 97.0289 75.9438 96.5515 77.8572 95.4137C77.8465 95.4892 77.8338 95.5647 77.819 95.6412C77.6251 96.6213 76.2044 97.4302 73.8181 97.92C72.0271 98.2872 70.0292 98.4365 68.0893 98.4365C63.5696 98.4365 59.3679 97.6258 58.8544 96.873C57.573 94.9922 56.8536 93.2866 55.858 90.9255C55.5135 90.1092 55.1234 89.1834 54.6696 88.1576C53.4155 85.323 51.9944 82.1102 48.8145 79.5258L48.7922 79.5081C46.0968 77.5221 42.1498 77.0361 38.933 77.0361C37.7298 77.0361 36.6281 77.1042 35.733 77.1871C30.153 77.7043 29.1556 81.2613 28.4956 83.6145L28.479 83.6744C28.1313 84.9132 27.9577 86.5189 27.7734 88.2189C27.3738 91.9102 26.9211 96.0939 24.5963 97.5283C23.8059 98.0161 19.508 98.7863 15.1828 98.7863Z" fill="#B9AFBE"/>
<path d="M15.2891 100C12.3889 100 9.46503 99.6647 7.41864 98.7353C5.78288 97.9924 4.83778 96.9308 4.60948 95.5806C3.91164 91.453 7.79178 89.2398 10.3181 88.5145C10.235 86.9464 10.0185 82.0967 10.3432 79.1537C11.2179 71.227 19.802 67.205 21.8632 66.3489C21.8155 65.8672 21.7073 64.9311 21.4668 63.3247C20.5168 56.976 19.4664 53.3935 19.4557 53.3577C19.3613 53.0387 19.5427 52.7031 19.8614 52.6084C20.1797 52.5131 20.5147 52.6956 20.6091 53.0146C20.6529 53.1621 21.6924 56.7038 22.6565 63.1457C23.0576 65.8261 23.0993 66.6821 23.1008 66.7172L23.1206 67.1575L22.7082 67.3102C22.6056 67.3482 12.4303 71.2078 11.539 79.2863C11.1673 82.6554 11.5432 88.8754 11.5471 88.9378L11.5783 89.4496L11.0792 89.5627C10.8334 89.619 5.0543 90.9943 5.79561 95.3793C5.953 96.3101 6.66601 97.0697 7.91521 97.6372C12.7981 99.8547 23.314 98.3195 24.5965 97.5284C26.9212 96.0939 27.3739 91.9102 27.7736 88.2189C27.9578 86.5189 28.1315 84.9133 28.4791 83.6744L28.4958 83.6145C29.1557 81.2613 30.1531 77.7043 35.7331 77.1872C39.0205 76.8827 45.0886 76.7788 48.7923 79.5081L48.8146 79.5259C51.9945 82.1102 53.4156 85.323 54.6698 88.1576C55.1235 89.1834 55.5136 90.1092 55.8581 90.9256C56.8537 93.2866 57.5731 94.9922 58.8545 96.873C59.5884 97.9491 67.8553 99.1426 73.8183 97.92C76.2045 97.4302 77.6253 96.6213 77.8191 95.6412C78.745 90.9532 70.7827 88.175 70.702 88.1477L70.406 88.0467L70.3183 87.7454C70.2907 87.6504 67.5154 78.1385 64.3422 71.009C58.0149 56.7935 55.1596 47.8708 55.1313 47.7821L54.963 47.2515L55.4772 47.041C55.6509 46.9701 72.8952 39.8381 77.7377 31.084C79.1878 28.4632 79.5206 26.0823 78.675 24.3806C78.0355 23.0935 76.7351 22.2768 74.9136 22.0188C68.8024 21.1536 59.6135 27.4966 52.9035 32.1286C51.1789 33.3192 49.5499 34.4436 48.2056 35.2808C47.9233 35.4566 47.5527 35.3694 47.3773 35.0869C47.2018 34.8041 47.2885 34.4326 47.5707 34.2568C48.891 33.4344 50.5087 32.3179 52.2212 31.1358C59.0943 26.3914 68.5078 19.8928 75.082 20.825C77.313 21.1412 78.9279 22.1847 79.7519 23.8428C80.7794 25.9107 80.4377 28.69 78.7899 31.6689C74.1684 40.0224 59.461 46.6507 56.4498 47.9399C57.1501 50.0379 60.0082 58.3123 65.4407 70.5177C68.3313 77.0121 70.8891 85.4418 71.3864 87.1137C72.9663 87.7089 80.0253 90.6792 78.999 95.8755C78.6969 97.4054 77.035 98.4907 74.0595 99.1011C68.8141 100.178 59.2117 99.5342 57.8614 97.5528C56.5117 95.5728 55.7729 93.8204 54.75 91.3949C54.4077 90.5828 54.0193 89.6626 53.5698 88.6464C52.3723 85.9394 51.0152 82.8716 48.0683 80.4712C44.6836 77.9865 38.9583 78.0992 35.8438 78.3877C31.0872 78.8287 30.2925 81.6632 29.6541 83.9406L29.6371 84.0009C29.3167 85.1429 29.148 86.7001 28.9697 88.349C28.54 92.3154 28.0533 96.811 25.2271 98.5549C24.1784 99.2021 19.762 100 15.2891 100Z" fill="#371A45"/>
<path d="M18.8328 49.6619C17.5642 49.0022 16.368 48.2231 15.2568 47.3409C15.2829 47.2615 15.2925 47.1761 15.2833 47.0906L15.4775 47.1424C15.4099 47.1172 15.3441 47.092 15.2805 47.0665C15.2741 47.0233 15.2628 46.98 15.2465 46.9375C15.2416 46.9244 15.2493 46.8836 15.278 46.8248C15.3508 46.6763 15.4863 46.5143 15.6759 46.3424C16.9385 47.0566 18.2637 47.6595 19.6342 48.1409L18.4982 48.679L18.8328 49.6619Z" fill="#B9AFBE"/>
<path d="M15.2569 47.3409C15.0984 47.215 14.9421 47.0874 14.7872 46.9577L15.2834 47.0906C15.2926 47.1761 15.2831 47.2615 15.2569 47.3409ZM15.2806 47.0665C15.05 46.9744 14.8431 46.8801 14.6592 46.7837C14.709 46.5451 14.8778 46.292 15.1405 46.0305C15.1872 46.0581 15.2336 46.0857 15.2802 46.1134L15.3672 46.1715L15.3952 46.1807C15.4882 46.2353 15.5819 46.2892 15.676 46.3424C15.4864 46.5143 15.351 46.6763 15.2781 46.8248C15.2495 46.8836 15.2417 46.9244 15.2466 46.9375C15.2629 46.98 15.2742 47.0233 15.2806 47.0665Z" fill="#371A45"/>
<path d="M28.8936 52.1352C27.9836 52.1352 27.0637 52.0767 26.1349 51.9565C25.7537 51.9048 25.3756 51.8467 25.0017 51.7783C24.9911 51.7768 24.9819 51.774 24.9713 51.7726C24.1844 51.6273 23.413 51.4408 22.6579 51.215C21.4031 50.8397 20.1988 50.3548 19.0522 49.7745C18.9789 49.7373 18.9057 49.6997 18.8329 49.6618L18.4983 48.6789L19.6343 48.1408C20.0987 48.3039 20.568 48.4531 21.0419 48.5878C21.8968 48.8302 22.7683 49.0287 23.6309 49.1765C24.027 49.2457 24.4528 49.3081 24.937 49.3676C25.9015 49.4814 26.8741 49.5384 27.8407 49.5384C27.8725 49.5384 27.904 49.5381 27.9355 49.5381C28.2138 49.537 28.4918 49.5314 28.7684 49.5207C28.7705 49.5207 28.7727 49.5204 28.7748 49.5204C28.7758 49.5204 28.7769 49.5204 28.778 49.5204C28.8087 49.519 28.8391 49.5179 28.8699 49.5165C29.9628 49.4729 31.0712 49.352 32.1644 49.1578C33.4451 48.9309 34.7244 48.5956 35.9693 48.1603C36.4135 48.0033 36.8592 47.8321 37.2945 47.6517C42.6259 45.4282 46.9231 41.4458 49.5785 36.51C47.6485 42.9555 43.0068 48.0107 37.1343 50.4817C36.7474 50.644 36.3541 50.7961 35.9559 50.9371C34.8634 51.3207 33.7337 51.6188 32.5758 51.819C31.6173 51.9867 30.6365 52.0895 29.6431 52.1217C29.3941 52.1306 29.144 52.1352 28.8936 52.1352Z" fill="#B9AFBE"/>
<path d="M10.7689 41.8096C13.6086 44.669 17.173 46.8294 21.2145 47.9782C22.0386 48.2121 22.88 48.405 23.7394 48.5524C24.1574 48.6254 24.5822 48.6857 25.0109 48.7385C26.3036 48.8909 27.5839 48.937 28.8448 48.8835C29.9316 48.8399 31.004 48.7204 32.0544 48.534C33.323 48.3092 34.5609 47.9817 35.7588 47.5628C36.1953 47.4086 36.626 47.243 37.0519 47.0669C44.8335 43.8215 50.6855 36.5735 51.738 27.5874C53.2914 14.3495 43.8418 2.35783 30.6351 0.800709C28.0914 0.502609 25.5909 0.609661 23.205 1.07932C22.9256 1.13142 22.6465 1.19203 22.3692 1.25832C21.6265 1.43058 20.8962 1.63757 20.18 1.8779C18.5241 2.43439 16.9421 3.16918 15.4616 4.05958C13.9807 4.94749 12.5975 5.99456 11.3412 7.17632C10.9415 7.55169 10.5543 7.94053 10.1797 8.34461C9.61913 8.95002 9.08791 9.58272 8.58922 10.2477C6.09862 13.5509 4.42437 17.542 3.90797 21.9518C3.01401 29.5666 5.76156 36.7678 10.7689 41.8096Z" fill="white"/>
<path d="M10.8142 41.7645C13.7026 44.6732 17.3049 46.8007 21.2318 47.9168C22.0625 48.1529 22.91 48.3454 23.75 48.4896C24.1348 48.5566 24.5496 48.6172 25.0186 48.675C26.2897 48.825 27.576 48.8735 28.8419 48.8196C29.9036 48.7771 30.9806 48.6601 32.0434 48.4712C33.2872 48.2507 34.5301 47.925 35.7379 47.5025C36.1704 47.3497 36.6044 47.1831 37.0274 47.0077C45.0506 43.6619 50.6631 36.2176 51.6746 27.5795C53.2213 14.3994 43.7795 2.41488 30.6276 0.864124C28.1327 0.571697 25.6393 0.664925 23.217 1.14167C22.9499 1.19165 22.6776 1.24979 22.384 1.32032C21.6459 1.49152 20.9117 1.69958 20.2001 1.93849C18.5647 2.4879 16.9812 3.21985 15.4944 4.11415C14.0203 4.99816 12.6377 6.04416 11.3846 7.22273C10.9822 7.60129 10.5924 7.99296 10.2263 8.38783C9.65692 9.00281 9.12322 9.64154 8.64009 10.2859C6.08264 13.677 4.46831 17.7136 3.97111 21.9593C3.10937 29.2994 5.60376 36.5182 10.8142 41.7645ZM27.8406 48.9685C26.8963 48.9685 25.9456 48.9129 25.0034 48.8019C24.5319 48.7438 24.1149 48.6828 23.7284 48.6151C22.8838 48.4705 22.0321 48.2766 21.1967 48.0398C17.2493 46.9173 13.628 44.7785 10.724 41.8546C5.48599 36.5802 2.97848 29.3235 3.84471 21.9444C4.34456 17.6764 5.9677 13.6182 8.53859 10.209C9.02383 9.56144 9.56072 8.91951 10.1333 8.30099C10.5011 7.904 10.893 7.51019 11.2976 7.12986C12.5571 5.94491 13.947 4.89323 15.429 4.00461C16.9236 3.10571 18.5155 2.36987 20.1598 1.81727C20.8749 1.5773 21.6134 1.36818 22.355 1.19626C22.6504 1.12537 22.9248 1.06652 23.1933 1.01654C25.6276 0.537315 28.1338 0.443398 30.6424 0.73724C43.864 2.2965 53.356 14.3445 51.8013 27.5944C50.7841 36.2779 45.1418 43.7619 37.0762 47.1257C36.6511 47.3019 36.215 47.4692 35.78 47.623C34.5658 48.0476 33.3162 48.3752 32.0653 48.5967C30.9972 48.7867 29.9142 48.9043 28.8472 48.9472C28.5129 48.9614 28.1769 48.9685 27.8406 48.9685Z" fill="#371A45"/>
<path d="M27.8409 48.2709C26.9234 48.2709 26.0007 48.2171 25.0879 48.1097C24.6284 48.0529 24.2228 47.9934 23.8461 47.9278C23.1692 47.8116 22.4876 47.6634 21.8142 47.4858C22.4314 47.5312 23.0471 47.5535 23.6601 47.5535C29.465 47.5535 35.0308 45.5342 39.2343 41.7075C43.1722 38.1228 45.3971 33.4316 45.7045 28.3101C45.7232 28.264 45.742 28.2186 45.7604 28.1725C46.1388 28.4657 46.5346 28.7223 46.9448 28.9382C46.6626 32.2718 45.5963 35.4275 43.7663 38.2777C40.5252 43.3263 35.0609 46.9598 28.7679 48.2525C28.4598 48.2649 28.1507 48.2709 27.8409 48.2709ZM37.1497 46.3363C40.2688 44.4612 42.9147 41.9464 44.8298 38.9633C46.7019 36.0475 47.8216 32.8347 48.1693 29.445C48.7338 29.6162 49.2968 29.702 49.8507 29.702C50.1587 29.702 50.4643 29.6754 50.7653 29.6223C49.2056 37.0258 44.1451 43.289 37.1497 46.3363ZM46.3563 11.6502C46.096 10.8467 45.794 10.0598 45.4534 9.2931C46.0723 10.002 46.6495 10.7485 47.18 11.5262C46.902 11.5457 46.6272 11.5868 46.3563 11.6502Z" fill="#B9AFBE"/>
<path d="M11.1162 41.4633C13.9534 44.3198 17.4916 46.4093 21.3481 47.5057C22.1641 47.7375 22.9966 47.9268 23.8221 48.0682C24.2009 48.1345 24.6087 48.194 25.0706 48.2511C26.317 48.3978 27.581 48.4457 28.8238 48.3929C29.8672 48.3511 30.925 48.2359 31.9687 48.0505C33.1907 47.8339 34.4112 47.5138 35.5971 47.0991C36.0215 46.9492 36.4484 46.7854 36.8644 46.6128C44.7443 43.3266 50.2575 36.0142 51.2513 27.5299C52.7703 14.5837 43.4962 2.81188 30.5777 1.28843C28.1267 1.00097 25.6779 1.09276 23.2994 1.561C23.0352 1.61027 22.7699 1.66733 22.4831 1.7361C21.7556 1.90482 21.034 2.10899 20.3355 2.34364C18.7295 2.88348 17.1744 3.60231 15.7137 4.48066C14.2654 5.34908 12.9072 6.37664 11.6764 7.5343C11.281 7.90612 10.8983 8.29107 10.539 8.67884C9.97947 9.28284 9.45532 9.90987 8.98104 10.5426C6.46851 13.8741 4.88303 17.8391 4.39464 22.0093C3.54818 29.2193 5.99812 36.3098 11.1162 41.4633ZM27.8406 49.396C26.88 49.396 25.9123 49.3393 24.9535 49.2262C24.4725 49.167 24.0488 49.105 23.6552 49.0362C22.7971 48.8891 21.9306 48.692 21.0807 48.451C17.0629 47.3086 13.3769 45.1319 10.4216 42.1562C5.09128 36.789 2.53963 29.4039 3.42118 21.8948C3.92987 17.5512 5.58184 13.4211 8.19835 9.95134C8.69209 9.29276 9.23816 8.6395 9.82067 8.01034C10.1952 7.60626 10.5942 7.20501 11.0062 6.81794C12.2876 5.61244 13.7019 4.54233 15.21 3.63776C16.7308 2.72361 18.3507 1.97465 20.0243 1.41213C20.7522 1.16755 21.5041 0.954884 22.2585 0.779781C22.5581 0.708183 22.8392 0.647568 23.1151 0.596172C25.5891 0.109501 28.1398 0.0137901 30.692 0.31295C44.1473 1.8995 53.807 14.1605 52.2246 27.6444C51.1898 36.4814 45.4478 44.0972 37.24 47.5202C36.8071 47.6996 36.3639 47.8697 35.9218 48.026C34.6846 48.4585 33.4128 48.792 32.1396 49.0174C31.0527 49.2106 29.9506 49.3308 28.8641 49.3744C28.5243 49.3885 28.183 49.396 27.8406 49.396Z" fill="#371A45"/>
<path d="M11.2171 41.3626C14.0373 44.2021 17.5539 46.2789 21.3868 47.3688C22.1981 47.5989 23.0257 47.7871 23.8462 47.9278C24.2229 47.9934 24.6286 48.0529 25.088 48.1096C26.3262 48.2553 27.5825 48.3028 28.8179 48.2504C29.8552 48.2089 30.9067 48.0944 31.9441 47.9101C33.1586 47.6949 34.3717 47.3766 35.5505 46.9644C35.9721 46.8155 36.3962 46.6528 36.81 46.4813C44.6425 43.2149 50.1224 35.9465 51.1103 27.5132C52.6201 14.645 43.4018 2.94405 30.5612 1.42981C28.125 1.14412 25.691 1.23557 23.3267 1.70061C23.0639 1.74988 22.8008 1.80624 22.5161 1.8743C21.7921 2.04266 21.0752 2.24541 20.3809 2.47865C18.7844 3.01494 17.2388 3.72989 15.787 4.60256C14.3471 5.46602 12.9971 6.4872 11.7741 7.63812C11.3805 8.00782 11.0003 8.39028 10.6431 8.77558C10.0871 9.37603 9.56611 9.99952 9.09466 10.628C6.59733 13.94 5.02134 17.8805 4.53591 22.0259C3.69455 29.1923 6.12977 36.2403 11.2171 41.3626ZM27.8407 49.5385C26.8744 49.5385 25.9015 49.4814 24.937 49.3676C24.4528 49.3081 24.027 49.2457 23.6308 49.1766C22.7682 49.0287 21.8968 48.8303 21.0419 48.5878C17.0008 47.4387 13.2935 45.2495 10.3209 42.2565C4.95969 36.8585 2.39347 29.4308 3.28007 21.8781C3.7917 17.5094 5.45318 13.3555 8.0849 9.86553C8.58111 9.20341 9.13073 8.54624 9.71642 7.91353C10.0934 7.50662 10.4945 7.10325 10.909 6.71406C12.1978 5.50146 13.6203 4.42533 15.1369 3.51579C16.6666 2.59598 18.296 1.84275 19.9791 1.27704C20.7116 1.03104 21.4678 0.817307 22.2267 0.640789C22.5277 0.568832 22.811 0.508228 23.089 0.456123C25.5761 -0.0333786 28.1417 -0.129799 30.7083 0.171135C44.2422 1.76725 53.9574 14.0992 52.3658 27.661C51.325 36.549 45.5497 44.2088 37.2945 47.6517C36.8591 47.8321 36.4135 48.0033 35.9693 48.1603C34.7243 48.5956 33.4451 48.9309 32.1644 49.1578C31.0712 49.352 29.9628 49.4729 28.8699 49.5165C28.5282 49.531 28.1848 49.5385 27.8407 49.5385Z" fill="#371A45"/>
<path d="M15.647 45.5973C31.9661 51.0758 48.3863 38.8811 44.5464 22.2368C41.9338 10.913 28.8537 4.73377 18.1624 7.94515C10.3811 10.2821 3.80457 15.9754 4.12239 29.0704C4.12239 29.0704 5.15619 34.8456 7.76492 38.1232C10.3737 41.4009 13.4627 44.1472 13.4627 44.1472L15.647 45.5973Z" fill="#371A45"/>
<path d="M44.5455 22.2371C48.3858 38.881 31.9652 51.0754 15.6468 45.598L15.2043 45.3034C30.8769 43.568 43.0859 30.2504 39.5159 13.3495C41.9371 15.7378 43.7388 18.7429 44.5455 22.2371Z" fill="#220F2D"/>
<path d="M11.217 41.3626C14.0372 44.2021 17.5539 46.2789 21.3867 47.3688C22.198 47.5989 23.0256 47.7871 23.8462 47.9278C24.2228 47.9934 24.6285 48.0529 25.0879 48.1096C26.3092 48.2535 27.5481 48.3014 28.768 48.2525C35.061 46.9598 40.5253 43.3262 43.7664 38.2777C46.8618 33.4564 47.7722 27.7613 46.3995 21.8082C45.1429 16.3617 41.569 11.6842 36.336 8.63805C30.6064 5.30225 23.5802 4.39378 17.5411 6.20789C14.1649 7.22199 11.31 8.72702 9.05391 10.6822C6.58063 13.9815 5.01879 17.9028 4.53584 22.0259C3.69447 29.1923 6.12969 36.2403 11.217 41.3626ZM27.8406 49.5385C26.874 49.5385 25.9014 49.4814 24.9369 49.3676C24.4527 49.3081 24.0269 49.2457 23.6308 49.1766C22.7681 49.0287 21.8967 48.8303 21.0418 48.5878C17.0007 47.4387 13.2935 45.2495 10.3208 42.2565C4.95972 36.8585 2.3934 29.4308 3.2801 21.8777C3.79163 17.5094 5.4531 13.3555 8.08483 9.86553L8.12444 9.81307L8.17395 9.76983C10.5744 7.67428 13.6036 6.06753 17.1783 4.99388C23.5455 3.08123 30.9445 4.03401 36.9712 7.54207C42.5094 10.7662 46.2956 15.7314 47.6314 21.5229C49.0829 27.817 48.1142 33.8477 44.8299 38.9632C41.3968 44.3109 35.6162 48.1529 28.9703 49.5044L28.8712 49.5165C28.5292 49.531 28.1851 49.5385 27.8406 49.5385Z" fill="#371A45"/>
<path d="M15.9263 45.0227C23.9672 47.6932 32.5655 46.0666 38.3846 40.7696C43.5256 36.0893 45.5469 29.3866 43.9302 22.3797C42.8165 17.5527 39.6486 13.4073 35.0097 10.7071C29.9284 7.74946 23.698 6.94378 18.3437 8.55195C9.07874 11.3348 4.50631 18.2162 4.75307 29.0041C4.85688 29.5478 5.902 34.7661 8.25927 37.728C10.6611 40.7458 13.516 43.3436 13.8502 43.6446L15.9263 45.0227ZM23.6602 47.5535C20.9362 47.5535 18.1601 47.109 15.446 46.1981L15.3671 46.1715L13.0431 44.6211C12.9154 44.5077 9.88336 41.8007 7.27073 38.5181C4.593 35.1539 3.54339 29.4245 3.49992 29.1824L3.49026 29.0856C3.21213 17.6264 8.08738 10.3097 17.9808 7.33829C23.6637 5.63123 30.2669 6.48086 35.645 9.61106C40.589 12.4893 43.9691 16.9224 45.1621 22.094C46.8849 29.5613 44.7242 36.71 39.2344 41.7075C35.031 45.5342 29.4651 47.5535 23.6602 47.5535Z" fill="#371A45"/>
<path d="M54.6063 25.4294C54.016 26.9522 52.9992 28.1406 51.6308 28.7117C48.4332 30.0451 44.5289 27.4984 42.9098 23.0241C42.7765 22.6554 42.6619 22.2847 42.5681 21.9153C41.5138 17.7944 42.8341 13.7277 45.7679 12.5041C48.9655 11.1703 52.8712 13.7157 54.4903 18.1914C55.4169 20.7524 55.3943 23.3906 54.6063 25.4294Z" fill="white"/>
<path d="M49.8512 28.4324C49.2203 28.4324 48.5681 28.2885 47.9166 28.0017C46.0294 27.1698 44.3798 25.2281 43.5038 22.8075C43.4613 22.6898 43.421 22.5721 43.3828 22.4545C43.6562 22.5806 43.9611 22.6664 44.285 22.6664C44.7767 22.6664 45.3121 22.4686 45.8458 21.9136C46.1228 22.9571 46.5765 23.9251 47.1573 24.7485C47.2032 24.8226 47.2506 24.8956 47.2995 24.9679C48.1401 26.216 49.227 26.9741 50.3404 27.2141C50.572 27.285 50.8079 27.3378 51.0467 27.3704C51.2408 27.397 51.4329 27.4101 51.6225 27.4101C51.9928 27.4101 52.3528 27.3594 52.6987 27.2595C52.3153 27.6281 51.8771 27.9227 51.3887 28.1265C50.8988 28.3306 50.3825 28.4324 49.8512 28.4324Z" fill="#B9AFBE"/>
<path d="M47.5479 12.7827C47.0167 12.7827 46.5003 12.8848 46.0105 13.089C43.1252 14.2927 42.0005 18.6525 43.5036 22.8075C44.3797 25.2281 46.0292 27.1698 47.9165 28.0017C49.1165 28.5302 50.3169 28.5731 51.3885 28.1265C54.2738 26.9224 55.3985 22.5629 53.8954 18.408C53.0197 15.9874 51.3698 14.0457 49.4826 13.2138C48.8311 12.927 48.1792 12.7827 47.5479 12.7827ZM49.8507 29.702C49.0475 29.702 48.2245 29.5216 47.4075 29.1615C45.1772 28.1786 43.3211 26.0203 42.3149 23.2392C40.5851 18.4576 42.0249 13.3793 45.5245 11.9193C46.923 11.3359 48.4675 11.3823 49.9915 12.054C52.2218 13.0365 54.0779 15.1952 55.0841 17.9759C56.814 22.7579 55.3741 27.8362 51.8745 29.2962C51.2258 29.567 50.5457 29.702 49.8507 29.702Z" fill="#371A45"/>
<path d="M56.0681 21.3099C56.1869 25.0153 53.9425 27.6993 51.0554 27.3048C48.168 26.9099 45.7311 23.5858 45.6127 19.8803C45.4938 16.1745 47.7383 13.4905 50.6254 13.8854C53.5128 14.2803 55.9496 17.6044 56.0681 21.3099Z" fill="white"/>
<path d="M50.0598 13.9128C49.1067 13.9128 48.2249 14.2584 47.4833 14.9287C46.2709 16.0243 45.613 17.8281 45.6785 19.8783C45.7962 23.5469 48.2122 26.8491 51.0643 27.239C52.2304 27.3978 53.3133 27.0603 54.1975 26.2617C55.4099 25.1661 56.0678 23.3619 56.0023 21.3121C55.8846 17.6431 53.4686 14.3413 50.6165 13.9511C50.4287 13.9256 50.2427 13.9128 50.0598 13.9128ZM51.6224 27.4102C51.4328 27.4102 51.2408 27.397 51.0466 27.3705C48.1333 26.9721 45.6661 23.6129 45.5465 19.8826C45.4797 17.7934 46.1531 15.952 47.3949 14.8301C48.3088 14.0046 49.4292 13.6548 50.6342 13.8199C53.5475 14.2183 56.0147 17.5772 56.1343 21.3078C56.2011 23.3966 55.5277 25.2384 54.2859 26.3599C53.5195 27.0525 52.6077 27.4102 51.6224 27.4102Z" fill="#371A45"/>
<path d="M50.3403 27.2141C49.227 26.9741 48.1401 26.2159 47.2994 24.9679C47.2506 24.8955 47.2032 24.8225 47.1572 24.7484C48.0018 25.9465 49.1145 26.8387 50.3403 27.2141Z" fill="#8C7B94"/>
<path d="M51.5036 27.2755C51.3586 27.2712 51.2121 27.2592 51.0643 27.2389C49.0798 26.9678 47.3065 25.2862 46.3713 23.0528C46.1871 22.4896 46.0619 21.9061 45.9961 21.3188C46.9867 22.5513 48.2412 23.1857 49.4664 23.1857C50.5398 23.1857 51.5909 22.6987 52.4228 21.7013C53.5747 20.321 54.0409 18.279 53.8149 16.2742C53.933 16.4192 54.0469 16.5758 54.1569 16.7385C56.0017 19.4778 55.9617 23.5405 54.0677 25.8133C53.3374 26.6892 52.4383 27.1709 51.5036 27.2755Z" fill="#B9AFBE"/>
<path d="M51.112 27.2974C50.8553 27.2974 50.5971 27.2694 50.3403 27.2141C49.1145 26.8387 48.0018 25.9465 47.1572 24.7485C46.8283 24.22 46.5666 23.6479 46.3713 23.0527C47.3065 25.2862 49.0798 26.9677 51.0643 27.2389C51.2121 27.2591 51.3586 27.2711 51.5036 27.2754C51.3738 27.2903 51.2429 27.2974 51.112 27.2974Z" fill="#371A45"/>
<path d="M49.7099 14.1787C49.3541 14.1787 49.0104 14.2475 48.6874 14.385C46.5866 15.2811 45.8485 18.7257 47.0414 22.0639C47.7704 24.1042 49.0942 25.7117 50.5821 26.3639C51.4037 26.7236 52.2126 26.7541 52.9217 26.4518C55.0222 25.5553 55.7607 22.1107 54.5677 18.7728C53.8384 16.7326 52.515 15.1251 51.027 14.4729C50.5796 14.2769 50.1358 14.1787 49.7099 14.1787ZM51.8988 27.9274C51.3018 27.9274 50.6875 27.793 50.0756 27.5247C48.2747 26.7357 46.6952 24.8539 45.8509 22.4911C44.4122 18.4655 45.4407 14.3928 48.1923 13.2192C49.23 12.7765 50.3851 12.8087 51.5335 13.3121C53.3344 14.1011 54.9136 15.9829 55.7582 18.3457C57.1966 22.3713 56.1685 26.444 53.4168 27.6176C52.9323 27.8242 52.4219 27.9274 51.8988 27.9274Z" fill="#371A45"/>
<path d="M8.11528 31.4136C8.0891 31.3385 8.06364 31.263 8.03853 31.1864C7.92747 30.8447 7.82526 30.4882 7.73224 30.1188C7.71031 30.0337 7.69086 29.949 7.67211 29.8636L7.67176 29.8583C7.5356 29.0969 7.39412 28.0899 7.3294 26.9407C7.1317 23.4749 7.62119 18.7159 11.0169 15.4978C15.3179 11.4216 20.4343 10.5014 23.2234 10.5014C24.5514 10.5014 25.3514 10.7098 25.2857 10.8856C25.2857 10.8856 15.476 14.5287 11.7009 21.9507C11.6966 21.9585 11.6927 21.9663 11.6888 21.9741C10.8955 23.5369 10.539 25.2869 10.6427 27.0372C10.7067 28.1168 10.8351 29.0352 10.9978 29.8476C9.94556 30.3428 8.97365 30.8703 8.11528 31.4136Z" fill="#9B8DA2"/>
<path d="M36.4903 22.2485C35.3076 22.2485 34.0732 21.5715 33.3089 20.3745C32.1924 18.6256 32.5011 16.4297 33.9986 15.4695C34.4708 15.1664 35.0052 15.0225 35.5502 15.0225C36.7329 15.0225 37.9672 15.6999 38.7315 16.8969C39.8481 18.6458 39.5393 20.8416 38.0418 21.8019C37.5697 22.1049 37.0353 22.2485 36.4903 22.2485Z" fill="#9B8DA2"/>
<path d="M39.2998 25.7296C39.0529 25.6183 38.822 25.4393 38.638 25.1986C38.1178 24.5181 38.1687 23.6036 38.7512 23.1563C38.9652 22.9921 39.2206 22.9135 39.4844 22.9135C39.6114 22.9135 39.7401 22.9319 39.8671 22.9673C39.7284 23.9091 39.5385 24.83 39.2998 25.7296Z" fill="#9B8DA2"/>
<path d="M39.9021 25.8632C39.7009 25.8632 39.4954 25.8174 39.2998 25.7295C39.5385 24.8299 39.7285 23.909 39.8671 22.9672C40.1953 23.0594 40.5108 23.2675 40.7485 23.5783C41.2684 24.2589 41.2178 25.173 40.6353 25.6204C40.4213 25.7848 40.1656 25.8632 39.9021 25.8632Z" fill="#918796"/>
<path d="M19.3428 62.7604C19.7 64.488 21.3871 65.5982 23.1109 65.2401C24.8348 64.8821 25.9425 63.1914 25.5853 61.4638C25.228 59.7361 23.541 58.626 21.8172 58.984C20.0933 59.342 18.9856 61.0327 19.3428 62.7604Z" fill="white"/>
<path d="M21.9272 64.6472C20.9549 64.4387 20.146 63.6745 19.9317 62.6381C19.8811 62.3925 19.8659 62.145 19.8854 61.9019C20.4102 62.3347 21.0702 62.5973 21.7705 62.6278L21.9272 64.6472Z" fill="#B9AFBE"/>
<path d="M19.9317 62.6381C20.221 64.0371 21.5929 64.9399 22.9889 64.6496C24.3852 64.36 25.2857 62.9855 24.9964 61.5861C24.7067 60.1867 23.3362 59.2849 21.9392 59.5742C21.2626 59.7149 20.6815 60.1108 20.3024 60.6893C19.9232 61.2681 19.7917 61.96 19.9317 62.6381ZM22.4633 65.9097C20.7052 65.9097 19.1243 64.6741 18.754 62.8827C18.5485 61.8895 18.7412 60.8754 19.2969 60.0275C19.8525 59.1797 20.7042 58.5994 21.6952 58.3935C23.7405 57.9695 25.7501 59.291 26.1741 61.3411C26.5982 63.3917 25.279 65.4053 23.233 65.8303C22.9751 65.8839 22.7173 65.9097 22.4633 65.9097Z" fill="#371A45"/>
<path d="M26.4412 70.0967L42.5427 68.8408C44.4487 68.693 45.8882 67.0079 45.74 65.0956L45.073 56.5086C44.9428 54.8341 43.6374 53.5216 42.0341 53.3206C41.8067 53.2908 41.5733 53.2862 41.3356 53.3043L25.2365 54.5598C23.3284 54.7079 21.889 56.393 22.0396 58.305L22.5663 65.1063L22.7042 66.8924C22.8524 68.8047 24.5355 70.2445 26.4412 70.0967Z" fill="white"/>
<path d="M58.3149 54.247C58.3149 54.247 60.4518 54.2038 61.0966 56.675C61.5075 58.2506 60.6226 60.0456 60.6226 60.0456C60.6226 60.0456 54.735 63.3665 44.641 63.4168C44.641 63.4168 41.4402 60.5943 44.3888 57.7207C44.3888 57.7207 53.5894 56.9451 58.3149 54.247Z" fill="white"/>
<path d="M26.4412 70.0967L42.5427 68.8408C44.4487 68.693 45.8882 67.0079 45.74 65.0956L45.073 56.5086C44.9428 54.8341 43.6374 53.5216 42.0341 53.3206C41.8067 53.2908 41.5733 53.2862 41.3356 53.3043L25.2365 54.5598C23.3284 54.7079 21.889 56.393 22.0396 58.305L22.5663 65.1063L22.7042 66.8924C22.8524 68.8047 24.5355 70.2445 26.4412 70.0967Z" fill="white"/>
<path d="M58.3149 54.247C58.3149 54.247 60.4518 54.2038 61.0966 56.675C61.5075 58.2506 60.6226 60.0456 60.6226 60.0456C60.6226 60.0456 54.735 63.3665 44.641 63.4168C44.641 63.4168 41.4402 60.5943 44.3888 57.7207C44.3888 57.7207 53.5894 56.9451 58.3149 54.247Z" fill="white"/>
<path d="M27.4198 72.2659C26.0401 72.2659 24.8143 71.4414 24.2576 70.2309C24.8312 70.5375 25.4834 70.7102 26.1692 70.7102C26.1699 70.7102 26.171 70.7102 26.172 70.7102C26.1734 70.7102 26.1745 70.7102 26.1759 70.7102C26.2187 70.7102 26.2615 70.7094 26.3043 70.708C26.3655 70.7063 26.427 70.7027 26.4882 70.6981L41.5273 69.5252L42.5894 69.4426C43.2752 69.3895 43.9232 69.1672 44.4866 68.7996C45.3057 68.2669 45.9172 67.4499 46.1917 66.5003C46.192 66.4989 46.1924 66.4978 46.1927 66.4967C46.2164 66.4152 46.2373 66.3333 46.2553 66.2504H46.2557C46.256 66.2486 46.2564 66.2468 46.2567 66.2454C46.2567 66.2444 46.2571 66.2433 46.2574 66.2422C46.2574 66.2415 46.2574 66.2412 46.2574 66.2408C46.3413 65.8591 46.371 65.4592 46.3391 65.0498L46.2097 63.3825C53.2992 63.1042 58.0671 61.2476 59.8458 60.4309C59.9809 60.7655 60.1192 61.1051 60.2603 61.4514C58.2715 63.0659 54.8989 65.1041 46.8552 65.5588L46.9878 67.2542C47.1353 69.1661 45.6961 70.8509 43.7898 71.0001L27.689 72.2552C27.5988 72.2623 27.5089 72.2659 27.4198 72.2659Z" fill="#B9AFBE"/>
<path d="M60.2602 61.4514C60.1191 61.1051 59.9808 60.7655 59.8457 60.4309C60.0752 60.3252 60.2553 60.237 60.3836 60.1718C60.4901 60.4319 60.6089 60.7201 60.7437 61.0462C60.5916 61.1774 60.431 61.3128 60.2602 61.4514Z" fill="#371A45"/>
<path d="M45.7587 57.5743L45.7109 56.9562C45.8376 57.1387 45.9472 57.334 46.0377 57.5403C45.9412 57.5524 45.8482 57.5637 45.7587 57.5743Z" fill="#B9AFBE"/>
<path d="M26.4412 70.0967L42.5427 68.8408C44.4487 68.693 45.8882 67.0079 45.74 65.0956L45.073 56.5086C44.9428 54.8341 43.6374 53.5216 42.0341 53.3206C41.8067 53.2908 41.5733 53.2862 41.3356 53.3043L25.2365 54.5598C23.3284 54.7079 21.889 56.393 22.0396 58.305L22.5663 65.1063L22.7042 66.8924C22.8524 68.8047 24.5355 70.2445 26.4412 70.0967Z" fill="white"/>
<path d="M25.7955 69.4791C25.2501 69.4065 24.7355 69.1782 24.3051 68.8092C23.7194 68.3066 23.3639 67.6094 23.3045 66.8459L23.1892 65.3575C24.7093 65.9427 26.9821 66.6002 30.0859 66.6002C30.1701 66.6002 30.255 66.5999 30.3402 66.5988C34.2993 66.5534 36.7015 65.8321 38.17 64.5901C39.0803 64.1938 39.7378 63.206 39.8747 62.0185C40.2344 60.9729 40.3928 59.7769 40.4756 58.464L41.0143 65.4032C41.074 66.1667 40.8307 66.9107 40.3295 67.4981C39.8284 68.085 39.133 68.4409 38.3716 68.4998L25.7955 69.4791Z" fill="#B9AFBE"/>
<path d="M41.6077 53.8958C41.533 53.8958 41.4581 53.8986 41.3827 53.9046L25.2822 55.1601C23.7013 55.2835 22.515 56.6726 22.6381 58.2574L23.3045 66.8459C23.3639 67.6094 23.7193 68.3066 24.305 68.8092C24.8907 69.3115 25.6327 69.5532 26.3952 69.4961L42.4954 68.2406C44.0767 68.1173 45.2629 66.7278 45.1399 65.1434L44.4732 56.5549C44.3561 55.046 43.0935 53.8958 41.6077 53.8958ZM26.1692 70.7101C24.062 70.7101 22.2714 69.0793 22.1051 66.9391L21.4384 58.3506C21.2641 56.1033 22.9465 54.1329 25.1888 53.9582L41.2894 52.7027C42.372 52.619 43.4249 52.9639 44.255 53.6753C45.0847 54.3871 45.5883 55.3767 45.6725 56.4613L46.3392 65.0498C46.5135 67.2974 44.8311 69.2679 42.5888 69.4426L26.4883 70.6981C26.3815 70.7062 26.2746 70.7101 26.1692 70.7101Z" fill="#371A45"/>
<path d="M25.79 70.0835C26.0022 70.1108 26.2183 70.115 26.4412 70.0966L42.5427 68.8407C43.9394 68.7312 45.0853 67.7993 45.5387 66.5527C45.7043 66.1001 45.7785 65.606 45.7375 65.0959L45.4429 61.2809L45.3456 60.0219L45.073 56.5085C44.9248 54.5962 43.2416 53.156 41.3356 53.3042L37.8565 53.5764C39.4838 53.7544 40.815 55.0758 40.9473 56.7669L41.3088 61.4053L41.6147 65.3564C41.7625 67.2662 40.3234 68.9535 38.4178 69.1016L25.79 70.0835Z" fill="white"/>
<path d="M41.1909 68.3421C41.2086 68.3223 41.2259 68.3024 41.2433 68.2818C41.9538 67.4496 42.2983 66.394 42.2134 65.3094L41.9531 61.953C42.2976 62.1887 42.6505 62.3326 42.9972 62.3326C43.0693 62.3326 43.1415 62.3266 43.2129 62.3135C43.3735 62.2848 43.5241 62.2376 43.6656 62.1756C44.0982 62.9391 44.6411 63.4173 44.6411 63.4173C44.7631 63.4166 44.884 63.4155 45.0046 63.4141L45.139 65.1431V65.1435C45.1988 65.9073 44.9555 66.6513 44.454 67.2387C43.9528 67.8257 43.2578 68.1815 42.4963 68.2407L41.1909 68.3421Z" fill="#B9AFBE"/>
<path d="M40.2021 53.9964C40.9618 54.6791 41.463 55.6422 41.5468 56.7212L42.2135 65.3093C42.2983 66.3939 41.9539 67.4495 41.2433 68.2818C41.226 68.3023 41.2087 68.3222 41.191 68.342L42.4964 68.2406C43.2579 68.1814 43.9528 67.8256 44.454 67.2386C44.9555 66.6513 45.1989 65.9073 45.1391 65.1434V65.143L44.4724 56.5549C44.4133 55.7911 44.0582 55.0938 43.4726 54.5916C42.8869 54.0893 42.1455 53.844 41.3816 53.9043L40.2021 53.9964ZM26.1759 70.7101C26.0231 70.7101 25.8696 70.7013 25.7175 70.6829L25.743 69.4834L38.3714 68.4998C39.1329 68.4409 39.8282 68.085 40.3294 67.4981C40.8306 66.9107 41.0739 66.1667 41.0141 65.4032L40.3474 56.8144C40.2406 55.4359 39.1658 54.3254 37.7921 54.1744L37.8109 52.9742L41.2886 52.7023C42.3716 52.618 43.4248 52.9639 44.2545 53.6757C45.0846 54.3874 45.5883 55.3771 45.6717 56.4621L46.3384 65.0495C46.4233 66.1341 46.0788 67.19 45.3683 68.0227C44.6581 68.8546 43.671 69.359 42.5894 69.4426L26.4878 70.6974C26.3846 70.7059 26.2802 70.7101 26.1759 70.7101Z" fill="#371A45"/>
<path d="M34.9377 61.6266C34.9642 61.9438 35.6231 64.469 35.6231 64.469C35.6231 64.469 36.433 64.4013 37.4276 64.318C38.67 64.2138 39.5698 62.8399 39.4372 61.2498C39.3045 59.659 38.1897 58.4542 36.9473 58.5584C36.1087 58.6286 35.1428 58.7094 35.1428 58.7094C35.1428 58.7094 34.8945 61.1095 34.9377 61.6266Z" fill="#22A7F0"/>
<path d="M36.7952 63.9169C37.3331 63.3966 37.6642 62.5633 37.6451 61.636C37.6433 61.558 37.6394 61.4797 37.6327 61.4006C37.5475 60.3798 37.0576 59.5174 36.3892 59.0587L36.9851 59.0088C37.0219 59.0056 37.059 59.0042 37.0962 59.0042C37.5174 59.0042 37.934 59.2044 38.2778 59.5755C38.6796 60.0101 38.9318 60.618 38.9876 61.2872C39.0994 62.6267 38.3825 63.784 37.3901 63.8673L36.7952 63.9169Z" fill="#2976B4"/>
<path d="M35.3872 61.5882C35.4053 61.7637 35.6801 62.8848 35.9641 63.9868L37.3901 63.8674C38.3825 63.7841 39.0994 62.6268 38.9877 61.2873C38.9318 60.618 38.6796 60.0102 38.2778 59.5756C37.904 59.1715 37.4435 58.9702 36.9851 59.0088L35.5542 59.1286C35.465 60.0445 35.3621 61.2848 35.3872 61.5882ZM35.2829 64.9509L35.1867 64.5834C35.03 63.9822 34.5158 61.9948 34.4882 61.6641C34.4429 61.1203 34.6682 58.9128 34.694 58.6629L34.7326 58.29L36.9098 58.1078C37.6511 58.0454 38.3726 58.3481 38.9392 58.961C39.4779 59.543 39.8142 60.3423 39.8867 61.2118C40.0399 63.0482 38.9537 64.6436 37.4654 64.7684L35.2829 64.9509Z" fill="#371A45"/>
<path d="M33.1331 61.7776C33.2657 63.368 34.3805 64.5732 35.623 64.4689C36.8655 64.3647 37.7652 62.9912 37.6326 61.4008C37.5 59.8103 36.3852 58.6052 35.1427 58.7094C33.9002 58.8136 33.0005 60.1871 33.1331 61.7776Z" fill="#22A7F0"/>
<path d="M35.1514 64.4467C34.282 64.2886 33.5393 63.5017 33.25 62.4408C33.5397 63.501 34.2827 64.2875 35.151 64.4459C35.151 64.4463 35.1514 64.4463 35.1514 64.4467Z" fill="#B9AFBE"/>
<path d="M36.7942 63.9173C37.3325 63.397 37.6639 62.5636 37.6451 61.636C37.6642 62.5633 37.3332 63.3966 36.7953 63.9169L36.7942 63.9173Z" fill="#2E568D"/>
<path d="M35.4734 64.4756C35.3645 64.4756 35.257 64.4657 35.1512 64.4466C35.1512 64.4462 35.1509 64.4462 35.1509 64.4459C35.257 64.4654 35.3645 64.4753 35.4734 64.4753C35.5229 64.4753 35.5728 64.4732 35.623 64.4689C36.068 64.4317 36.4687 64.2318 36.7941 63.9174L36.7951 63.917C36.4697 64.2318 36.0687 64.4321 35.6237 64.4696C35.5735 64.4739 35.5233 64.4756 35.4734 64.4756Z" fill="#371A45"/>
<path d="M35.4735 64.4753C35.3645 64.4753 35.257 64.4654 35.1509 64.4459C34.2826 64.2874 33.5396 63.5009 33.2499 62.4407C33.1922 62.2294 33.1526 62.0068 33.1335 61.7768C33.1148 61.5624 33.1166 61.3504 33.1357 61.1452C33.5247 62.1543 34.3421 62.8444 35.2475 62.8444C35.2977 62.8444 35.3483 62.8423 35.3992 62.8377C36.4723 62.748 37.291 61.7112 37.406 60.4033C37.5248 60.7099 37.6019 61.0459 37.6327 61.4011C37.6394 61.4801 37.6433 61.5585 37.6451 61.6361C37.6638 62.5637 37.3324 63.397 36.7941 63.9174C36.4687 64.2318 36.068 64.4317 35.6231 64.4689C35.5729 64.4732 35.523 64.4753 35.4735 64.4753Z" fill="#2976B4"/>
<path d="M37.6326 61.4011C37.6421 61.5095 37.646 61.6166 37.6439 61.7225C37.2934 60.4972 36.3335 59.6497 35.2842 59.7383C34.1266 59.8365 33.2647 61.036 33.264 62.4868C33.1982 62.2606 33.1547 62.0238 33.1335 61.7768C33.0001 60.1874 33.9002 58.8128 35.1424 58.7086C36.3848 58.6062 37.4993 59.8099 37.6326 61.4011Z" fill="white"/>
<path d="M33.5826 61.7399C33.6943 63.0794 34.5945 64.0985 35.5855 64.0184C36.0452 63.9797 36.4647 63.705 36.7664 63.2442C37.0907 62.7487 37.2389 62.1075 37.183 61.4383C37.0713 60.0988 36.1697 59.0769 35.1801 59.1598C34.7207 59.1985 34.3013 59.4732 33.9992 59.9343C33.6749 60.4295 33.5271 61.0711 33.5826 61.7399ZM35.4755 64.9272C34.0629 64.9272 32.8303 63.5753 32.6835 61.8154C32.611 60.9459 32.8105 60.1016 33.2452 59.4381C33.7025 58.7398 34.3628 58.3208 35.1052 58.2588C36.5952 58.1337 37.9289 59.5267 38.0821 61.3628C38.1546 62.2326 37.9551 63.0766 37.5208 63.7401C37.0635 64.4387 36.4028 64.8574 35.6604 64.9194C35.5985 64.9247 35.5367 64.9272 35.4755 64.9272Z" fill="#371A45"/>
<path d="M31.4413 70.0963C31.2125 70.0963 31.0166 69.923 30.9929 69.6901L30.463 64.4633C30.4326 64.1648 30.2561 63.9032 29.9912 63.7639L28.3905 62.921C27.8437 62.6332 27.4872 62.093 27.4373 61.4763L26.8665 54.4392C26.8463 54.1904 27.0313 53.9721 27.2796 53.9519C27.5279 53.9345 27.7454 54.1171 27.7655 54.3659L28.3364 61.4029C28.3615 61.7092 28.5383 61.9775 28.81 62.1207L30.4107 62.9632C30.9444 63.2443 31.2995 63.7707 31.3607 64.3722L31.8905 69.5987C31.9156 69.8468 31.7352 70.0687 31.4873 70.0942C31.4717 70.0956 31.4565 70.0963 31.4413 70.0963Z" fill="#371A45"/>
<path d="M58.3149 54.247C58.3149 54.247 60.4518 54.2038 61.0966 56.675C61.5075 58.2506 60.6226 60.0456 60.6226 60.0456C60.6226 60.0456 54.735 63.3665 44.641 63.4168C44.641 63.4168 41.4402 60.5943 44.3888 57.7207C44.3888 57.7207 53.5894 56.9451 58.3149 54.247Z" fill="white"/>
<path d="M60.8083 59.6008V59.6005C60.8755 59.419 60.9516 59.1907 61.0191 58.9313C60.9516 59.1907 60.8755 59.4193 60.8083 59.6008Z" fill="#8C7B94"/>
<path d="M60.3838 60.1719V60.1715C60.5422 60.0911 60.6229 60.0457 60.6229 60.0457C60.6229 60.0457 60.7053 59.878 60.8086 59.6005V59.6008C60.7056 59.8787 60.6232 60.046 60.6232 60.046C60.6232 60.046 60.5426 60.0918 60.3838 60.1719Z" fill="#371A45"/>
<path d="M46.2097 63.3826C53.2989 63.1043 58.0668 61.2473 59.8454 60.4303L59.8458 60.431C58.0671 61.2477 53.2992 63.1043 46.2097 63.3826Z" fill="#8C7B94"/>
<path d="M59.8456 60.4309L59.8452 60.4302C60.0751 60.3246 60.2548 60.2367 60.3835 60.1714V60.1718C60.2551 60.237 60.0751 60.3253 59.8456 60.4309Z" fill="#371A45"/>
<path d="M43.6657 62.1756C43.2494 61.4415 42.935 60.4441 43.3021 59.3548C43.3021 59.3555 43.3025 59.3563 43.3025 59.3566C42.9364 60.4448 43.2505 61.4419 43.666 62.1752L43.6657 62.1756Z" fill="#B9AFBE"/>
<path d="M44.6412 63.4172C44.6412 63.4172 44.0983 62.939 43.6658 62.1755L43.6661 62.1752C44.0987 62.9387 44.6412 63.4168 44.6412 63.4168C44.7632 63.4161 44.8842 63.415 45.0048 63.4136V63.414C44.8842 63.4154 44.7632 63.4165 44.6412 63.4172Z" fill="#8C7B94"/>
<path d="M45.0046 63.414V63.4136C45.4135 63.4083 45.8146 63.3977 46.2089 63.3825C45.8146 63.398 45.4135 63.4087 45.0046 63.414Z" fill="#371A45"/>
<path d="M61.1267 56.8002C61.1175 56.7584 61.1076 56.7169 61.0966 56.6751C61.0924 56.6592 61.0885 56.6436 61.0842 56.6276C61.0885 56.6436 61.0927 56.6595 61.0966 56.6751C61.1076 56.7166 61.1175 56.7584 61.1267 56.8002Z" fill="#8C7B94"/>
<path d="M44.6411 63.4168C44.6411 63.4168 44.0986 62.9386 43.666 62.1751C43.2505 61.4418 42.9364 60.4447 43.3025 59.3565C43.3064 59.3679 43.3102 59.3788 43.3141 59.3902C43.7223 60.5425 44.8265 61.3003 46.0396 61.3003C46.0771 61.3003 46.1146 61.2996 46.1524 61.2982C55.3028 60.9441 60.5935 57.9603 60.5935 57.9603C60.5935 57.9603 60.8902 57.3577 61.0603 56.546C61.0684 56.573 61.0766 56.6003 61.0844 56.6275C61.0886 56.6435 61.0925 56.6591 61.0967 56.675C61.1077 56.7169 61.1176 56.7583 61.1268 56.8002C61.2877 57.5427 61.177 58.3222 61.0193 58.9312C60.9517 59.1906 60.8757 59.4189 60.8085 59.6004C60.7052 59.8779 60.6228 60.0456 60.6228 60.0456C60.6228 60.0456 60.5422 60.0909 60.3837 60.1714C60.255 60.2366 60.0753 60.3245 59.8454 60.4302C58.0668 61.2472 53.2988 63.1042 46.2097 63.3824H46.209C45.8146 63.3977 45.4136 63.4083 45.0047 63.4136C44.8841 63.415 44.7632 63.4161 44.6411 63.4168Z" fill="#B9AFBE"/>
<path d="M58.6323 54.9343C58.4328 54.9343 58.2291 54.9829 58.0391 55.0793C54.0196 57.1174 47.699 57.9748 45.1681 58.2488C44.8066 58.2878 44.4809 58.4785 44.2747 58.7717C43.5072 59.8616 43.5645 61.0412 44.4444 62.2772C44.6853 62.6154 45.0768 62.81 45.4966 62.8015C52.9419 62.6239 57.8934 60.6744 59.6767 59.8442C59.9989 59.6943 60.2433 59.4196 60.3472 59.0914C60.5365 58.492 60.7197 57.6126 60.5149 56.8275C60.2797 55.9264 59.7966 55.3192 59.079 55.0219C58.9378 54.9634 58.7861 54.9343 58.6323 54.9343ZM45.4659 64.0077C44.6711 64.0077 43.9267 63.6256 43.4651 62.9773C42.2902 61.3273 42.2286 59.5866 43.2918 58.0766C43.6971 57.5006 44.3337 57.1266 45.0386 57.0501C46.9623 56.842 53.5453 56.0065 57.4962 54.0035C58.146 53.6739 58.8904 53.6388 59.5387 53.9078C60.2843 54.2165 61.2608 54.9212 61.6785 56.5226C61.9561 57.586 61.7312 58.7043 61.4939 59.4558C61.2887 60.1055 60.8109 60.6453 60.1835 60.9377C58.3316 61.7994 53.1966 63.8237 45.5253 64.007C45.5055 64.0073 45.4857 64.0077 45.4659 64.0077Z" fill="#371A45"/>
<path d="M14.6853 47.1536C14.002 45.3714 21.9004 42.4496 25.3226 41.4153C33.0939 39.0663 34.8192 33.1161 32.319 29.6406C27.6247 23.1158 10.7337 28.3345 5.75246 33.2313C3.97614 34.9773 0.130347 39.2659 1.08988 46.025L14.6853 47.1536Z" fill="white"/>
<path d="M23.959 41.851C24.4605 41.683 24.9224 41.5363 25.3224 41.4154C28.8511 40.3488 31.1334 38.5397 32.3394 36.5572C31.1334 38.54 28.8518 40.3492 25.3231 41.4157C24.9224 41.5366 24.4609 41.6834 23.959 41.851ZM32.3482 36.5423C32.3497 36.5402 32.3511 36.5374 32.3525 36.5352C32.3511 36.5377 32.3497 36.5398 32.3482 36.5423Z" fill="#371A45"/>
<path d="M14.6586 46.7833C8.32206 43.7279 19.7091 40.3109 23.0001 39.4167C29.4883 37.6525 32.8903 34.5553 33.2713 31.837C33.5683 33.3267 33.2893 34.9835 32.3524 36.5353C32.351 36.5374 32.3496 36.5402 32.3482 36.5424C32.3474 36.5434 32.3467 36.5448 32.346 36.5459C32.3439 36.5491 32.3418 36.5526 32.34 36.5558C32.3397 36.5562 32.3393 36.5565 32.3393 36.5572C31.1333 38.5397 28.851 40.3489 25.3223 41.4154C24.9223 41.5363 24.4604 41.683 23.9589 41.8511C20.455 43.0211 14.9861 45.2152 14.6586 46.7833Z" fill="#B9AFBE"/>
<path d="M14.7871 46.9576L14.6442 46.9194C14.6438 46.9109 14.6442 46.9023 14.6445 46.8942C14.6452 46.8765 14.647 46.8587 14.6491 46.841C14.6948 46.88 14.7411 46.919 14.7871 46.9576Z" fill="#371A45"/>
<path d="M15.4775 47.1424L15.2833 47.0906C15.2826 47.0825 15.2816 47.0743 15.2805 47.0665C15.3442 47.0921 15.41 47.1172 15.4775 47.1424Z" fill="#8C7B94"/>
<path d="M15.2833 47.0906L14.7871 46.9577C14.7411 46.9191 14.6948 46.8801 14.6492 46.8411C14.6516 46.822 14.6548 46.8028 14.6591 46.7837C14.843 46.8801 15.0499 46.9744 15.2805 47.0665C15.2815 47.0743 15.2826 47.0825 15.2833 47.0906Z" fill="#371A45"/>
<path d="M14.6445 46.8941C14.6456 46.8572 14.6506 46.8204 14.6587 46.7832C14.6587 46.7832 14.6587 46.7835 14.6591 46.7835C14.6548 46.8027 14.6516 46.8218 14.6491 46.8409C14.647 46.8587 14.6452 46.8764 14.6445 46.8941Z" fill="#B9AFBE"/>
<path d="M14.6852 47.7566C14.4437 47.7566 14.2155 47.6095 14.1236 47.3699C14.033 47.1338 13.9726 46.7552 14.1979 46.2941C15.4149 43.8047 24.752 40.9581 25.1488 40.8383C28.9028 39.7037 31.5699 37.5316 32.4664 34.8788C33.0514 33.1484 32.8198 31.3676 31.8309 29.9933C30.6934 28.4125 28.6881 27.4884 25.8696 27.2474C19.1596 26.6728 9.60676 30.2868 6.1736 33.6616C2.54507 37.2285 1.03504 41.3594 1.68531 45.94C1.73203 46.2696 1.50338 46.5748 1.1745 46.622C0.845859 46.668 0.541058 46.4394 0.494266 46.1098C-0.212772 41.1286 1.41454 36.6511 5.33114 32.801C9.01859 29.1763 18.8381 25.4357 25.9722 26.0461C29.1556 26.3183 31.4549 27.4094 32.8067 29.288C34.0258 30.9826 34.3169 33.1611 33.606 35.2655C32.5828 38.2922 29.6271 40.744 25.4961 41.9924C21.0631 43.3323 15.8959 45.5607 15.278 46.8247C15.2493 46.8836 15.2416 46.9243 15.2465 46.9374C15.3657 47.2483 15.2112 47.5971 14.901 47.7165C14.8299 47.7438 14.757 47.7566 14.6852 47.7566Z" fill="#371A45"/>
<path d="M69.2635 40.7859C69.1695 40.7859 69.0743 40.7608 68.9884 40.7083C62.4651 36.7331 60.0407 26.9543 59.9406 26.54C59.8716 26.2546 60.0463 25.9675 60.3314 25.8984C60.6158 25.8293 60.9026 26.0048 60.9716 26.2897C60.9952 26.3872 63.396 36.0561 69.5394 39.7999C69.7898 39.9523 69.8694 40.2794 69.7173 40.5304C69.6172 40.6949 69.4425 40.7859 69.2635 40.7859Z" fill="#371A45"/>
<path d="M16.3752 45.6381H16.3713C12.9392 45.614 9.85615 43.8545 7.91304 40.8111C6.0488 37.8918 5.64809 34.4029 6.86686 31.7055C6.98747 31.4382 7.30153 31.3195 7.56891 31.4404C7.83594 31.5616 7.95407 31.8767 7.83346 32.1443C6.76111 34.517 7.13389 37.6185 8.80643 40.238C10.5529 42.9726 13.3127 44.5531 16.3787 44.5748C16.6719 44.5769 16.9078 44.8168 16.9057 45.1103C16.9036 45.4028 16.6666 45.6381 16.3752 45.6381Z" fill="#371A45"/>
<path d="M29.3494 83.3693C29.111 83.3693 28.8945 83.2073 28.8348 82.9652C27.7168 78.4456 16.3061 76.4039 12.0039 75.9984C11.7121 75.9711 11.4978 75.7116 11.525 75.4196C11.5526 75.1271 11.8115 74.912 12.103 74.9396C12.765 75.002 28.3375 76.5358 29.8647 82.7097C29.9351 82.9947 29.7618 83.2828 29.4774 83.3534C29.4346 83.364 29.3915 83.3693 29.3494 83.3693Z" fill="#371A45"/>
<path d="M52.8553 84.6453C52.5115 84.6453 52.1928 84.6311 51.9035 84.6024C51.6117 84.5734 51.3992 84.3128 51.4282 84.0204C51.4572 83.7287 51.7161 83.5146 52.0086 83.5444C56.124 83.9555 66.3499 81.2355 67.2033 77.7618C67.2737 77.4768 67.5616 77.302 67.8456 77.3726C68.1299 77.4431 68.304 77.7309 68.2339 78.0163C67.5878 80.6442 63.4915 82.3523 61.107 83.1368C58.274 84.0686 55.0594 84.6453 52.8553 84.6453Z" fill="#371A45"/>
<path d="M10.7953 88.3916C10.9162 88.3586 10.999 88.3402 11.0962 88.3189C11.191 88.2962 11.2823 88.2849 11.3756 88.2679C11.5606 88.2388 11.7452 88.2147 11.9284 88.2005C12.2956 88.1626 12.6609 88.1598 13.0248 88.1594C13.7527 88.1715 14.4721 88.248 15.1809 88.3678C15.8886 88.4933 16.5871 88.6528 17.263 88.8871C17.4334 88.9374 17.5997 89.0048 17.7656 89.0718C17.9318 89.1366 18.0973 89.2033 18.2607 89.2752C18.5861 89.423 18.9044 89.5882 19.2146 89.7693C18.8521 89.7608 18.5005 89.7282 18.1514 89.6931C17.7999 89.6708 17.4554 89.6276 17.1102 89.5967L16.081 89.5035C15.9102 89.4907 15.7407 89.467 15.5703 89.4571L15.0596 89.4252C14.3801 89.3904 13.7036 89.3731 13.0337 89.3947C12.6991 89.4025 12.3656 89.4216 12.0374 89.4482C11.8722 89.4599 11.7102 89.4798 11.5486 89.4961L11.3106 89.5265C11.2359 89.5358 11.1472 89.5503 11.098 89.5584L11.051 89.5662C10.7235 89.6201 10.4143 89.3982 10.3606 89.07C10.31 88.7638 10.5031 88.4724 10.7953 88.3916Z" fill="#371A45"/>
<path d="M62.4626 91.2413C62.7116 90.4452 63.2216 89.7413 63.8236 89.1469C64.428 88.5453 65.163 88.0838 65.939 87.717C66.3354 87.5585 66.7333 87.3873 67.1489 87.2849C67.3554 87.2299 67.5609 87.1591 67.7717 87.1261L68.4034 87.0176C68.6142 86.9754 68.8264 86.9662 69.0386 86.9528C69.2508 86.9379 69.463 86.9258 69.6756 86.9163C70.0986 86.917 70.5209 86.9482 70.9414 86.9758C71.2721 86.9978 71.5225 87.2842 71.5006 87.6152C71.48 87.9293 71.2222 88.171 70.9142 88.1771L70.8505 88.1781C70.4643 88.1841 70.0795 88.17 69.6964 88.1686C69.5058 88.1813 69.3152 88.1916 69.1242 88.1987C68.9332 88.2058 68.7419 88.2114 68.5551 88.2433L67.9889 88.3114C67.8934 88.3192 67.8014 88.3412 67.7091 88.3617L67.4311 88.4184C67.053 88.4752 66.7001 88.6098 66.3308 88.7063C65.6143 88.9554 64.9317 89.2971 64.2788 89.7119C63.6284 90.1322 63.0151 90.6302 62.4626 91.2413Z" fill="#371A45"/>
</svg>

