<svg width="83" height="100" viewBox="0 0 83 100" fill="none" xmlns="http://www.w3.org/2000/svg">
<path d="M66.6178 69.9533C66.5399 72.4598 63.9689 72.8514 63.852 72.9297C63.7351 73.0081 35.4146 75.2404 31.5191 75.0054C31.2137 74.9866 30.9301 74.9631 30.6652 74.9334C30.1105 74.8707 29.6399 74.7861 29.2395 74.689C27.9555 74.3788 27.0284 73.2556 26.9691 71.9303L26.9255 70.9637L26.7385 66.7637L66.4854 64.9794C66.4854 64.9794 66.6957 67.4468 66.6178 69.9533Z" fill="#FCFCFC"/>
<path d="M32.2792 75.6492C31.9557 75.6492 31.687 75.6433 31.4814 75.6307C30.5542 75.575 29.7277 75.4575 29.0244 75.2817C27.5173 74.9051 26.4159 73.5384 26.3458 71.9584L26.1161 66.7925C26.1005 66.4466 26.367 66.154 26.7107 66.1383C27.0495 66.1223 27.3459 66.3908 27.3615 66.7364L27.5911 71.9023C27.6369 72.9322 28.3497 73.8217 29.3251 74.0654C29.9543 74.2227 30.7051 74.3286 31.5562 74.38C35.2575 74.6037 61.9562 72.5427 63.689 72.3212C63.7286 72.3081 63.7712 72.2962 63.8205 72.2821C65.2469 71.8788 65.958 71.1106 65.9945 69.9338C66.0702 67.4949 65.8667 65.0561 65.8646 65.032C65.8353 64.687 66.0896 64.3837 66.4324 64.3543C66.778 64.3258 67.0775 64.5805 67.1068 64.9252C67.1152 65.0273 67.3187 67.4586 67.2405 69.9729C67.2027 71.1898 66.6371 72.7877 64.158 73.4886C64.1243 73.4983 64.0975 73.5055 64.0795 73.5115C64.0807 73.5109 64.0857 73.5093 64.0932 73.5065C63.8732 73.5845 63.1991 73.6393 59.3472 73.9448C56.2096 74.1936 52.4917 74.4724 49.1462 74.7102C42.9227 75.152 35.2619 75.6492 32.2792 75.6492Z" fill="#371A45"/>
<path d="M32.6616 37.6968L29.3912 37.7748C27.5697 37.8184 26.0794 39.2471 25.9491 41.0743L25.3122 50.0223L24.9023 61.5967V65.3527C24.9023 66.0761 25.4596 66.6761 26.1776 66.7256L29.8048 66.9769L66.2548 65.0124C66.9977 64.9723 67.573 64.3428 67.55 63.5953L67.2458 53.7544C67.2206 52.9383 66.6082 52.2621 65.8023 52.1603L65.0733 52.0685L64.4737 46.5764L45.6206 45.2007L42.5896 41.0963L32.6616 37.6968Z" fill="#FCFCFC"/>
<path d="M29.8048 67.6035C29.7904 67.6035 29.7761 67.6032 29.7621 67.6019L26.1346 67.351C25.094 67.2789 24.2791 66.401 24.2791 65.3527V61.5964C24.2791 61.5892 24.2794 61.5816 24.2797 61.5741L24.6892 50C24.6895 49.9925 24.6898 49.985 24.6904 49.9775L25.2782 41.7236C25.4602 39.1666 27.5195 37.193 30.0681 37.132L32.6466 37.0705C32.9891 37.0643 33.2765 37.3359 33.2846 37.6821C33.293 38.028 33.0203 38.315 32.6763 38.3235L30.0977 38.3849C28.1948 38.4303 26.6575 39.9041 26.5216 41.8128L25.9345 50.0558L25.5256 61.6076V65.3527C25.5256 65.7449 25.8307 66.0736 26.2203 66.1006L29.8095 66.349L66.2214 64.3867C66.6228 64.3651 66.9391 64.0186 66.9267 63.6147L66.6228 53.7739C66.6069 53.2629 66.2292 52.8458 65.7247 52.7819L64.996 52.6901C64.7096 52.6541 64.4853 52.4251 64.4538 52.1368L63.9109 47.1639L45.5754 45.8258C45.3947 45.8126 45.2283 45.7208 45.1201 45.5745L42.0891 41.4698C41.884 41.1922 41.9417 40.7996 42.2181 40.5934C42.4942 40.387 42.8847 40.4449 43.0901 40.7228L45.9507 44.5966L64.5189 45.9517C64.819 45.9736 65.0606 46.2077 65.0936 46.5082L65.6393 51.5083L65.8799 51.5387C66.9971 51.6794 67.8336 52.6033 67.8688 53.7347L68.1726 63.5759C68.206 64.6552 67.3605 65.5805 66.2881 65.6381L29.8381 67.6026C29.8269 67.6032 29.816 67.6035 29.8048 67.6035Z" fill="#371A45"/>
<path d="M81.8103 28.2435C79.5898 32.9824 76.9019 32.8257 76.9019 32.8257C76.9019 32.8257 69.2589 46.9248 62.543 50.9979C62.543 50.9979 63.3065 64.0787 63.4623 70.1883C63.6088 75.9219 65.8822 88.8304 66.1611 90.397C66.1798 90.5004 66.1892 90.5537 66.1892 90.5537C66.1892 90.5537 67.682 90.527 68.9176 91.5202C69.9632 92.3583 70.8233 93.928 70.4384 96.8591C70.32 97.7567 69.6484 98.4805 68.7634 98.6481C66.3793 99.0977 61.1281 99.7525 54.4169 98.5698C53.6939 98.4429 53.1501 97.8366 53.1033 97.1003C52.9101 94.0643 52.3445 86.3083 51.5155 83.9741C50.5432 81.2326 48.4723 77.3898 48.2183 76.9198C48.2012 76.8885 48.1919 76.8728 48.1919 76.8728C48.1903 76.97 48.1887 77.0655 48.1872 77.1627C48.075 83.4509 48.4552 89.6466 49.2717 95.7609C49.5023 97.4904 48.2386 99.0585 46.5074 99.1854C42.4249 99.4846 36.0565 99.3624 33.138 99.2622C32.7453 99.2497 32.4072 98.9818 32.3028 98.6011C32.0426 97.6439 31.7075 95.7954 32.4757 94.3494C33.0289 93.3045 34.157 92.4696 36.298 92.3286C32.0597 83.4399 29.5977 73.1679 28.9744 61.4673C28.9744 61.4673 20.9232 63.0604 19.9882 57.6558C19.0533 52.2511 28.5584 40.5802 34.0121 39.562C36.4461 39.1077 40.2902 39.5808 43.8008 40.245C48.1545 41.0674 51.9939 42.1828 51.9939 42.1828C55.129 41.3761 58.0865 39.8769 60.6653 37.7244C63.7288 35.1709 66.2593 31.6963 67.9219 27.3694C69.2542 24.288 69.4942 19.4849 74.655 20.7898C74.655 20.7898 76.5778 18.3867 79.018 20.0849C79.018 20.0849 79.7861 20.6097 80.5886 21.5324V21.5339C81.8352 22.9674 83.1612 25.3611 81.8103 28.2435Z" fill="#FCFCFC"/>
<path d="M28.9733 60.8412C29.111 60.8412 29.2463 60.887 29.3566 60.9734C29.499 61.085 29.5863 61.2532 29.5959 61.4343C30.2089 72.931 32.6525 83.2343 36.8594 92.0581C36.9485 92.2458 36.9398 92.4658 36.8354 92.6453C36.7307 92.8248 36.5446 92.9407 36.338 92.9542C34.8452 93.0526 33.7928 93.5204 33.2088 94.3444C32.2829 95.6518 32.6868 97.6411 32.9034 98.4356C32.9352 98.5512 33.038 98.6321 33.1596 98.6365C34.0175 98.6656 41.6802 98.9112 46.4614 98.5606C47.1243 98.5121 47.7201 98.1997 48.1396 97.6809C48.5597 97.1611 48.7423 96.5088 48.6535 95.8445C47.8086 89.515 47.4437 83.1275 47.5687 76.8596C47.5743 76.5761 47.7687 76.3317 48.0427 76.2637C48.3166 76.196 48.6018 76.3217 48.7379 76.5701C48.8321 76.7428 51.0591 80.8256 52.1027 83.7635C52.9532 86.1575 53.521 93.86 53.7255 97.0605C53.7541 97.5082 54.0826 97.8754 54.5242 97.9531C61.0712 99.1067 66.1834 98.4977 68.6478 98.0318C69.2658 97.9149 69.7367 97.4108 69.8199 96.7769C70.0758 94.8288 69.7779 93.3549 68.9339 92.3962C67.8609 91.1774 66.2036 91.1762 66.1974 91.1802H66.1915C65.8907 91.1802 65.6296 90.9637 65.5757 90.6655C65.4703 90.0815 62.9943 76.2922 62.8391 70.2043C62.6852 64.1749 61.9285 51.1652 61.9207 51.0345C61.9073 50.8023 62.0229 50.5815 62.2211 50.4612C68.7176 46.5216 76.2787 32.6653 76.3544 32.5259C76.4697 32.3128 76.6944 32.1856 76.9378 32.2003C76.9381 32.2 79.2589 32.2182 81.2463 27.9766C83.2168 23.771 78.7139 20.6341 78.6684 20.6027C76.7714 19.284 75.3005 20.9856 75.1393 21.1839C74.9863 21.3719 74.737 21.4562 74.5033 21.397C70.9001 20.4859 70.115 22.8774 69.206 25.6468C68.9891 26.3069 68.7653 26.9896 68.4995 27.6072C65.5199 35.3507 59.561 40.8838 52.1486 42.7894C52.041 42.8169 51.9282 42.8154 51.8213 42.7844C51.6973 42.7483 39.3712 39.1988 34.1257 40.1779C31.7304 40.6253 28.1845 43.442 25.0924 47.354C21.9754 51.2968 20.213 55.2984 20.6019 57.5483C20.7877 58.6208 21.2879 59.426 22.1321 60.01C24.5389 61.6752 28.8106 60.8613 28.8536 60.8528C28.8935 60.845 28.9334 60.8412 28.9733 60.8412ZM39.8446 100C36.5449 100 33.6292 99.9063 33.1175 99.8888C32.4475 99.8659 31.8784 99.4154 31.7014 98.7671C31.3739 97.5656 31.0021 95.2994 32.1938 93.6175C32.871 92.6613 33.9352 92.0547 35.3641 91.8081C31.396 83.192 29.0515 73.2362 28.3902 62.1916C26.9529 62.3733 23.6464 62.577 21.4284 61.0445C20.3081 60.2704 19.6168 59.1662 19.3741 57.7632C18.9128 55.0969 20.6855 50.9142 24.1163 46.5742C26.7173 43.2835 30.653 39.5519 33.8982 38.946C39.154 37.964 50.4336 41.0865 52.0021 41.533C58.9473 39.6891 64.532 34.4537 67.3411 27.1441C67.3442 27.1359 67.3474 27.1281 67.3508 27.1203C67.5964 26.5519 67.8033 25.9215 68.0224 25.2539C68.9146 22.5356 70.0194 19.17 74.4388 20.0961C75.3746 19.1549 77.2906 18.1216 79.3727 19.5688C79.4229 19.603 84.7934 23.3467 82.3738 28.5104C80.494 32.5227 78.2146 33.2835 77.2859 33.4226C76.1316 35.5045 69.4163 47.2932 63.1866 51.3325C63.3119 53.5116 63.9455 64.6987 64.0854 70.1723C64.2222 75.5375 66.2722 87.4343 66.7175 89.964C67.4617 90.0586 68.8245 90.3907 69.8548 91.5515C70.958 92.7941 71.3622 94.6076 71.0559 96.9408C70.9019 98.1129 70.0269 99.0463 68.8781 99.2634C66.3308 99.745 61.0503 100.375 54.3092 99.1876C53.2988 99.0096 52.5471 98.1681 52.4814 97.141C52.3243 94.685 51.7487 86.4925 50.9288 84.1849C50.3931 82.6766 49.5077 80.8064 48.7912 79.3771C48.7962 84.7768 49.1643 90.2488 49.8891 95.6778C50.0241 96.6883 49.7461 97.6802 49.1069 98.4713C48.4687 99.2609 47.5615 99.7365 46.5521 99.8104C44.5753 99.9555 42.1187 100 39.8446 100Z" fill="#371A45"/>
<path d="M23.4848 17.6902L21.136 18.8749C19.7601 19.5685 18.9489 21.0405 19.0932 22.581L19.7601 29.7036C19.9243 31.4559 21.2775 32.858 23.0146 33.0758L26.179 33.4724L23.4848 17.6902Z" fill="white"/>
<path d="M62.5432 13.9928L65.0709 14.7156C66.5516 15.1392 67.6217 16.4329 67.766 17.9735L68.4329 25.096C68.5972 26.8484 67.5279 28.4798 65.8619 29.0196L62.8268 30.0034L62.5432 13.9928Z" fill="white"/>
<path d="M22.9502 30.6281C22.0913 30.2314 21.2296 29.8532 20.3663 29.4939L20.1956 27.6688C20.7328 28.3365 21.4942 28.8152 22.368 28.99C22.541 29.5449 22.7351 30.091 22.9502 30.6281Z" fill="#CDC6D0"/>
<path d="M64.4929 29.4633L65.8617 29.0196C66.1727 28.919 66.4631 28.7799 66.7283 28.6095L66.728 28.6098C66.4628 28.7805 66.1727 28.9193 65.8613 29.0202L64.4929 29.4633Z" fill="#BB96D0"/>
<path d="M66.7283 28.6097L66.7286 28.6094C66.9215 28.4853 67.101 28.3446 67.2662 28.1895C67.101 28.3446 66.9212 28.4856 66.7283 28.6097Z" fill="#371A45"/>
<path d="M64.4929 29.4633C64.9862 28.0085 65.3272 26.5034 65.5098 24.9685C67.1609 24.4195 68.2164 22.7956 68.0531 21.053L68.4318 25.096C68.543 26.2831 68.0886 27.4148 67.2659 28.1896C67.1007 28.3447 66.9212 28.4854 66.7283 28.6095C66.4631 28.7799 66.1727 28.919 65.8617 29.0196L64.4929 29.4633Z" fill="#CDC6D0"/>
<path d="M64.9462 20.2499C66.0612 32.1549 57.3658 42.7141 45.5243 43.8352C33.6832 44.9562 23.1799 36.2142 22.0648 24.3092C20.9498 12.4042 29.6452 1.84497 41.4867 0.723942C53.3278 -0.396778 63.8311 8.34497 64.9462 20.2499Z" fill="white"/>
<path d="M43.4701 43.306C43.4695 43.306 43.4689 43.306 43.4683 43.306C40.1365 43.3057 36.8957 42.5133 33.9663 40.9969C35.0106 41.1555 36.0774 41.2372 37.1591 41.2372C37.8353 41.2372 38.5172 41.2053 39.2041 41.1401C40.7389 40.9947 42.2214 40.6908 43.6363 40.2459C44.147 40.2265 44.6616 40.1926 45.1789 40.1438C53.3458 39.3705 60.1028 35.0455 63.2195 29.3273C62.4096 31.6129 61.1989 33.7622 59.6138 35.6869C56.0518 40.0128 51.0275 42.6847 45.4662 43.2114C44.7981 43.2747 44.133 43.306 43.4701 43.306ZM62.4186 14.0204C60.7476 11.642 58.3704 9.65873 55.5238 8.22721C55.1807 7.66795 54.8133 7.12653 54.4231 6.60361C57.8796 8.31994 60.6871 10.891 62.4186 14.0204ZM58.4346 7.55359C56.6866 6.22953 54.6852 5.15078 52.5071 4.37126C51.7963 3.64813 51.0362 2.9767 50.2325 2.36073C52.6116 3.17409 54.8479 4.42577 56.8415 6.08508C57.4006 6.55035 57.9319 7.04069 58.4346 7.55359Z" fill="#CDC6D0"/>
<path d="M65.0125 20.9572C65.9001 30.4321 57.0211 39.0228 45.179 40.1438C34.3821 41.1658 24.8509 35.6265 22.5827 27.4568C22.3618 26.6676 22.2097 25.8527 22.1315 25.0164C21.2439 15.5415 30.1229 6.95301 41.9653 5.83198C50.8636 4.9898 58.9015 8.60448 62.7244 14.4722L62.7247 14.4744C63.99 16.4163 64.7922 18.6042 65.0125 20.9572Z" fill="#371A45"/>
<path d="M42.6216 40.265C36.4614 40.265 30.8951 38.1376 27.1143 34.6639C27.0619 34.2773 26.9544 33.9026 26.7977 33.5507C26.7977 33.5504 26.7977 33.5504 26.7977 33.5501C26.8322 33.2703 26.678 33.0106 26.4349 32.9009C26.0528 32.3426 25.5321 31.8773 24.906 31.5659C24.8293 31.528 24.753 31.4901 24.6763 31.4522C24.111 30.2779 23.6554 29.0494 23.3157 27.7773C27.2997 32.6565 33.1779 34.7911 39.1861 34.7911C45.7028 34.7911 52.3723 32.2812 56.9459 28.038C56.8898 29.1358 56.7477 30.2691 56.5184 31.4387C59.1991 29.1177 60.5769 26.2596 60.6688 23.3706C62.1254 20.7776 62.9014 17.8299 62.7328 14.6178C63.5559 16.2687 64.0853 18.0633 64.2633 19.9617C64.2695 20.0291 64.286 20.0933 64.3106 20.1528C64.3159 20.2048 64.3209 20.2569 64.3259 20.3085C64.6164 23.4119 64.2299 26.4758 63.2196 29.3273C60.1029 35.0455 53.3458 39.3705 45.1789 40.1438C44.6616 40.1926 44.1471 40.2265 43.6363 40.2459C43.2966 40.2587 42.9579 40.265 42.6216 40.265Z" fill="#1C1A31"/>
<path d="M43.5429 1.25315C42.8797 1.25315 42.2137 1.28448 41.5449 1.34777C30.0649 2.43465 21.6045 12.7088 22.6853 24.2506C23.2091 29.8417 25.8668 34.8929 30.1697 38.4741C33.9549 41.6248 38.6155 43.3057 43.4681 43.306C44.1312 43.306 44.7972 43.2747 45.466 43.2114C51.0273 42.6847 56.0515 40.0128 59.6136 35.6869C63.1757 31.3613 64.8492 25.8996 64.3256 20.3085C63.8018 14.7175 61.1441 9.66623 56.8413 6.08506C53.056 2.93438 48.3954 1.25315 43.5429 1.25315ZM43.4659 44.5593C38.3238 44.5593 33.3858 42.7781 29.3747 39.4394C24.8156 35.6449 21.999 30.2923 21.4443 24.3681C20.299 12.1383 29.2637 1.25158 41.428 0.100155C47.3212 -0.457226 53.0772 1.3249 57.6362 5.11975C62.1953 8.91428 65.0119 14.2669 65.5666 20.191C66.1213 26.1155 64.3484 31.9024 60.5741 36.4861C56.7995 41.0696 51.4754 43.901 45.5829 44.459C44.8745 44.5261 44.1683 44.5593 43.4659 44.5593Z" fill="#371A45"/>
<path d="M22.0314 24.6162C21.698 24.6162 21.4134 24.3612 21.3817 24.0209C20.9077 18.9603 22.775 13.9899 26.6391 10.0262C30.4744 6.09221 35.825 3.61892 41.7057 3.06216C53.8822 1.90886 64.589 9.43463 65.5638 19.8385C65.5975 20.1994 65.3338 20.52 64.9748 20.5538C64.6167 20.5879 64.2967 20.3229 64.263 19.9616C63.3561 10.2793 53.296 3.28555 41.8282 4.36992C36.2545 4.89754 31.1918 7.23298 27.5724 10.9457C23.9817 14.6287 22.2452 19.2285 22.6825 23.8978C22.7164 24.2587 22.4525 24.5792 22.0934 24.6131C22.0726 24.6153 22.052 24.6162 22.0314 24.6162Z" fill="#371A45"/>
<path d="M26.1799 34.0992C26.154 34.0992 26.1281 34.0974 26.102 34.0942L22.9372 33.6976C20.8941 33.4413 19.3325 31.823 19.1396 29.7624L18.4723 22.6398C18.3028 20.8282 19.2387 19.1304 20.8564 18.3145L23.2056 17.1302C23.5128 16.9745 23.8877 17.0998 24.042 17.4091C24.1963 17.7186 24.0719 18.0952 23.7643 18.2503L21.4152 19.4349C20.2605 20.0171 19.5924 21.229 19.7136 22.5223L20.3805 29.6449C20.5183 31.1159 21.6333 32.2711 23.0918 32.454L26.2562 32.8507C26.5978 32.8933 26.8399 33.2066 26.7975 33.55C26.7583 33.8671 26.4896 34.0992 26.1799 34.0992Z" fill="#371A45"/>
<path d="M62.8267 30.6301C62.5634 30.6301 62.3187 30.4612 62.2336 30.1955C62.128 29.8662 62.3081 29.5131 62.6357 29.4069L65.6707 28.4234C67.0697 27.97 67.9507 26.6259 67.8127 25.1549L67.1458 18.0324C67.0245 16.739 66.1435 15.6738 64.9007 15.3185L62.373 14.5956C62.042 14.501 61.8497 14.1545 61.9438 13.8214C62.0379 13.4884 62.3823 13.2951 62.7139 13.3903L65.2419 14.1131C66.9828 14.611 68.2169 16.1033 68.3867 17.9149L69.0539 25.0374C69.2468 27.0981 68.0131 28.9811 66.0534 29.6162L63.0181 30.5997C62.9545 30.6203 62.89 30.6301 62.8267 30.6301Z" fill="#371A45"/>
<path d="M56.9458 28.038C57.3509 20.1115 53.2756 14.041 45.2754 9.59543C55.6761 11.4358 60.8563 17.4674 60.6686 23.3705C59.7019 25.0913 58.4342 26.6572 56.9458 28.038Z" fill="#9B8DA2"/>
<path d="M56.5181 31.4386C56.7474 30.269 56.8895 29.1357 56.9456 28.0379C58.434 26.6571 59.7018 25.0912 60.6685 23.3705C60.5766 26.2595 59.1988 29.1176 56.5181 31.4386Z" fill="#8E8D98"/>
<path d="M29.3652 32.1118C28.7616 32.1118 28.1726 31.8333 27.7921 31.3223C26.3822 29.4289 25.3877 27.0966 25.5099 24.618C25.5707 23.3882 26.601 22.4737 27.7737 22.4737C27.9357 22.4737 28.1003 22.4912 28.2657 22.5276C29.234 22.7413 29.9564 23.5606 30.0412 24.5538C30.1437 25.7572 30.4301 27.5042 31.1918 29.3948C31.5832 30.3667 31.1478 31.4774 30.2039 31.9232C29.9343 32.0504 29.6482 32.1118 29.3652 32.1118Z" fill="#9B8DA2"/>
<path d="M29.6145 19.4788C29.4285 19.4788 29.2396 19.4478 29.0554 19.3829L28.928 19.3381C27.9547 18.9954 27.5031 17.8628 27.9846 16.9457C28.2751 16.393 28.6603 15.7451 29.1617 15.0511C29.497 14.5874 30.0147 14.3483 30.5348 14.3483C30.9714 14.3483 31.4099 14.5163 31.7446 14.8603C32.2616 15.392 32.3757 16.1994 32.0266 16.8545L31.1079 18.5796C30.8059 19.1461 30.2244 19.4788 29.6145 19.4788Z" fill="#9B8DA2"/>
<path d="M26.5107 35.5405L26.4593 36.0684L26.3642 37.0287C26.2427 38.2632 25.4698 39.341 24.337 39.8313C23.6108 40.1462 22.8816 40.4501 22.1508 40.743C18.6339 42.1561 15.0531 43.3279 11.4147 44.2678C10.2585 44.567 9.09608 44.8427 7.92901 45.0949C7.28546 45.2344 6.62323 45.2359 5.99059 45.0981C5.48573 44.9916 4.99957 44.7973 4.55548 44.5153C0.0615964 41.6642 -0.890471 31.6162 3.32605 27.4304C4.4106 26.3526 5.96722 25.9139 7.46466 26.2069C8.47282 26.4043 9.47787 26.6251 10.4767 26.8727C14.486 27.8627 18.4173 29.2507 22.277 31.0084L22.2786 31.01C23.0655 31.3656 23.8493 31.7384 24.6299 32.1269C25.9014 32.7598 26.6509 34.1212 26.5107 35.5405Z" fill="#85C742"/>
<path d="M22.8113 32.6634C22.634 32.5813 22.4563 32.5002 22.2787 32.4199L22.2771 32.4184C19.2673 31.0476 16.2141 29.9019 13.1142 28.9945C12.9254 28.663 12.722 28.3519 12.5045 28.0621C15.7435 28.9876 18.9784 30.1876 22.1811 31.6526C22.4189 31.9014 22.6324 32.2473 22.8113 32.6634ZM2.1311 30.3978C2.54394 29.4021 3.09349 28.5418 3.76358 27.8766C4.50223 27.1434 5.50519 26.7443 6.55097 26.7443C6.81443 26.7443 7.08076 26.7697 7.34609 26.8214C8.37414 27.0219 9.40321 27.2506 10.4328 27.5075C10.8175 27.7923 11.1739 28.1401 11.4988 28.544C11.1588 28.454 10.8179 28.3669 10.4768 28.2826C9.47798 28.0351 8.47293 27.8142 7.46477 27.6169C7.16117 27.5573 6.85488 27.5282 6.55082 27.5282C5.35526 27.5282 4.19078 27.9809 3.32616 28.8403C2.86723 29.2959 2.46955 29.8207 2.1311 30.3978Z" fill="white" fill-opacity="0.3"/>
<path d="M26.5108 35.5405L26.3643 37.0288C26.2427 38.2632 25.4699 39.341 24.337 39.8314C23.6109 40.1462 22.8817 40.4502 22.1509 40.7431C24.8263 37.9922 24.1454 32.3917 22.2787 31.01C23.0655 31.3656 23.8493 31.7385 24.63 32.127C25.9015 32.7599 26.651 34.1212 26.5108 35.5405Z" fill="#F6F6F6"/>
<path d="M4.88783 43.9853C5.7298 44.5195 6.79103 44.7009 7.79869 44.4825C13.3997 43.2716 18.8809 41.5132 24.0906 39.2564C25.0109 38.8579 25.6448 37.9806 25.7445 36.9668L25.8913 35.4791C26.005 34.3243 25.3867 33.2032 24.353 32.6894C18.7528 29.9044 13.0307 27.9302 7.34613 26.8214C6.0276 26.5645 4.68835 26.9586 3.76361 27.8766C1.87169 29.7549 0.940883 33.187 1.33439 36.8333C1.68424 40.0761 3.04584 42.8163 4.88783 43.9853ZM6.95626 45.8257C5.98696 45.8257 5.03025 45.5575 4.22254 45.0452C2.03391 43.6563 0.490933 40.6369 0.0949913 36.9683C-0.33841 32.951 0.731646 29.1255 2.88774 26.9849C4.10524 25.7762 5.86068 25.2551 7.58354 25.5913C13.3776 26.7211 19.2056 28.7313 24.9059 31.5659C26.4017 32.3097 27.2962 33.932 27.1316 35.6026L26.9848 37.0902C26.8402 38.5575 25.9203 39.8286 24.5839 40.4076C19.3 42.6963 13.7407 44.4797 8.06072 45.7079C7.69582 45.7868 7.32497 45.8257 6.95626 45.8257Z" fill="#371A45"/>
<path d="M11.4145 44.8168C11.2808 44.8168 11.1468 44.7676 11.0415 44.6683C10.8218 44.4612 10.8108 44.1143 11.0169 43.8934C12.9886 41.7801 13.9974 37.7751 13.5275 33.9273C13.1547 30.8743 11.9349 28.4706 10.1812 27.333C9.92811 27.1688 9.85519 26.8295 10.0187 26.5747C10.1819 26.3203 10.5194 26.2477 10.7725 26.4115C12.7991 27.7262 14.1978 30.4169 14.6101 33.7938C15.1252 38.011 14.027 42.2698 11.8124 44.6435C11.7051 44.7588 11.56 44.8168 11.4145 44.8168Z" fill="#371A45"/>
<path d="M16.7942 41.1269C18.9757 39.6634 21.26 41.0962 21.26 41.0962L21.1986 43.2033L20.092 43.896L16.7942 41.1269Z" fill="#85C742"/>
<path d="M9.64541 35.6593C9.64541 39.524 8.06414 42.6565 6.11351 42.6565C4.16288 42.6565 2.58154 39.524 2.58154 35.6593C2.58154 31.7949 4.16288 28.6621 6.11351 28.6621C8.06414 28.6621 9.64541 31.7949 9.64541 35.6593Z" fill="#F6F6F6"/>
<path d="M6.39748 43.6553C5.74471 43.6553 5.13371 43.3047 4.60962 42.6932C5.073 43.0243 5.57986 43.2051 6.11379 43.2051C7.60051 43.2051 8.87765 41.8037 9.58917 39.66C9.02185 42.022 7.80585 43.6553 6.39748 43.6553Z" fill="white" fill-opacity="0.3"/>
<path d="M22.1514 41.2921C22.0139 41.2921 21.8762 41.2404 21.7702 41.136C21.5546 40.9242 21.5508 40.5771 21.7615 40.3606C22.9333 39.1553 23.5266 37.1394 23.3481 34.9691C23.2153 33.3571 22.6671 31.9751 21.9513 31.4484C21.7085 31.2698 21.6555 30.9267 21.8335 30.6823C22.0114 30.4376 22.3524 30.3847 22.5958 30.5636C23.5703 31.2808 24.2752 32.9341 24.4351 34.8785C24.6392 37.3615 23.9315 39.6973 22.5415 41.1269C22.4346 41.2369 22.2932 41.2921 22.1514 41.2921Z" fill="#371A45"/>
<path d="M9.15939 32.1159L7.12172 32.5662C6.02115 32.809 5.23706 33.7894 5.23706 34.9223V35.6567C5.23706 36.7198 5.92934 37.6575 6.94146 37.9655L9.29966 38.683L9.15939 32.1159Z" fill="#85C742"/>
<path d="M5.85209 36.1675C5.80656 36.0049 5.78247 35.8332 5.78247 35.6568V34.9224C5.78247 34.3356 6.06189 33.7961 6.50317 33.4502C6.55512 33.4693 6.60614 33.4918 6.65844 33.5138C6.78412 33.5771 6.91052 33.6485 7.02013 33.7394C6.31101 34.1658 5.85209 34.9434 5.85209 35.81V36.1675ZM7.80493 33.4389C7.76224 33.364 7.71518 33.291 7.6637 33.2205C7.61969 33.1572 7.57204 33.0971 7.5215 33.0394L8.77707 32.7621C8.81145 32.9053 8.84345 33.0523 8.87287 33.2027L7.80493 33.4389Z" fill="white" fill-opacity="0.3"/>
<path d="M6.11378 29.2105C4.67134 29.2105 3.12716 31.8019 3.12716 35.6594C3.12716 39.5172 4.67134 42.1086 6.11378 42.1086C7.556 42.1086 9.10025 39.5172 9.10025 35.6594C9.10025 31.8019 7.556 29.2105 6.11378 29.2105ZM6.11378 43.2052C3.82742 43.2052 2.03638 39.8907 2.03638 35.6594C2.03638 31.4281 3.82742 28.1139 6.11378 28.1139C8.40008 28.1139 10.191 31.4281 10.191 35.6594C10.191 39.8907 8.40008 43.2052 6.11378 43.2052Z" fill="#371A45"/>
<path d="M9.29999 39.2318C9.24767 39.2318 9.19456 39.2239 9.1419 39.2079L6.78376 38.4904C5.53246 38.1098 4.69189 36.9712 4.69189 35.6568V34.9224C4.69189 33.5426 5.66469 32.3266 7.00484 32.0306L9.04254 31.5806C9.33776 31.5155 9.62765 31.7031 9.69229 31.9986C9.75683 32.2944 9.57072 32.5867 9.27656 32.6519L7.23888 33.1018C6.39511 33.2882 5.78261 34.0536 5.78261 34.9224V35.6568C5.78261 36.4843 6.31187 37.2012 7.09967 37.4408L9.45781 38.1583C9.74617 38.2461 9.90916 38.5522 9.82181 38.842C9.7506 39.0789 9.53419 39.2318 9.29999 39.2318Z" fill="#371A45"/>
<path d="M6.54632 32.3295C6.5931 32.3461 6.62115 32.3599 6.65001 32.3734C6.68024 32.3871 6.70884 32.4012 6.73487 32.416C6.78856 32.4451 6.84263 32.4739 6.8919 32.5065C6.99418 32.5679 7.08808 32.64 7.18108 32.7111C7.36092 32.8627 7.52933 33.0275 7.66362 33.2205C7.94111 33.5997 8.09054 34.0565 8.11544 34.4923C8.11734 34.6019 8.12012 34.7104 8.11903 34.8172L8.07686 35.1321C8.0677 35.2367 8.03818 35.3363 8.00967 35.4354L7.92655 35.7299C7.84805 35.9169 7.7751 36.1037 7.69101 36.2829L7.40555 36.8011L7.56271 36.2365C7.60229 36.0466 7.62897 35.8552 7.66066 35.6688L7.67235 35.3859C7.67715 35.2925 7.68288 35.2001 7.66848 35.1089L7.64227 34.8385L7.57745 34.5825C7.4758 34.2504 7.29383 33.9703 7.05271 33.7676C6.93597 33.6629 6.79673 33.5837 6.65836 33.5138C6.58562 33.4834 6.51535 33.4511 6.44158 33.4295C6.40543 33.4161 6.36934 33.4082 6.33391 33.3988C6.31568 33.3935 6.29903 33.3904 6.28342 33.3882C6.26672 33.3847 6.2493 33.3816 6.24951 33.3844L6.54632 32.3295Z" fill="#371A45"/>
<path d="M21.1988 43.8298C21.1926 43.8298 21.1864 43.8295 21.1801 43.8295C20.8361 43.8195 20.5656 43.5306 20.5756 43.1847L20.6254 41.4696C20.0059 41.1858 18.5446 40.7055 17.14 41.6482C16.8533 41.8403 16.4662 41.7626 16.2755 41.4747C16.0845 41.187 16.1618 40.7979 16.4479 40.6058C18.936 38.9365 21.4828 40.4974 21.5896 40.5648C21.7779 40.6826 21.8894 40.8919 21.8829 41.1147L21.8215 43.2214C21.8115 43.561 21.5348 43.8298 21.1988 43.8298Z" fill="#371A45"/>
<path d="M3.8997 39.8751C3.8997 39.8751 3.88287 39.8598 3.85298 39.8281C3.41272 38.7428 3.1272 37.3182 3.1272 35.6592C3.1272 31.8017 4.67139 29.2103 6.11382 29.2103C6.97676 29.2103 7.87613 30.1377 8.45946 31.7093L7.00474 32.0304C5.71358 32.3158 4.76341 33.4547 4.69566 34.7716C3.84871 35.985 3.3718 37.6434 3.8997 39.8751Z" fill="#C6BFCA"/>
<path d="M3.85278 39.8283C3.48632 39.4411 1.1586 36.6303 3.89768 30.2115C3.89768 30.2115 4.75043 28.7298 6.04085 28.7298C6.89986 28.7298 7.95287 29.3865 9.07737 31.5741C9.06568 31.576 9.05396 31.5782 9.04224 31.5807L8.45925 31.7094C7.87592 30.1379 6.97656 29.2104 6.11362 29.2104C4.67118 29.2104 3.12699 31.8019 3.12699 35.6594C3.12699 37.3184 3.41252 38.743 3.85278 39.8283Z" fill="#371A45"/>
<path d="M4.69556 34.7717C4.76331 33.4549 5.71347 32.316 7.00464 32.0306L8.45935 31.7094L9.04234 31.5806C9.05406 31.5781 9.06578 31.5759 9.07747 31.5741C9.11225 31.6417 9.14702 31.7107 9.18193 31.7815C9.18193 31.7815 8.22191 32.0174 7.1039 32.6522C7.03574 32.6011 6.96603 32.551 6.89192 32.5065C6.84265 32.4739 6.78858 32.4451 6.73488 32.4159C6.70886 32.4012 6.68025 32.3871 6.65002 32.3733C6.62116 32.3598 6.59311 32.3461 6.54634 32.3295L6.31304 33.1588C5.73227 33.5777 5.15869 34.1081 4.69556 34.7717Z" fill="#371A45"/>
<path d="M6.31299 33.1587L6.54628 32.3294C6.59306 32.346 6.62111 32.3597 6.64997 32.3732C6.6802 32.387 6.7088 32.4011 6.73483 32.4158C6.78852 32.445 6.84259 32.4738 6.89186 32.5064C6.96597 32.5509 7.03569 32.601 7.10384 32.6521C6.84534 32.799 6.57848 32.9669 6.31299 33.1587Z" fill="#371A45"/>
<path d="M7.2876 44.559C8.80196 44.1492 11.0596 42.7171 11.538 37.8701C11.623 37.0141 12.3318 36.3634 13.1791 36.3634C13.2018 36.3634 13.2246 36.3637 13.2474 36.3646L13.6319 36.3806C13.53 39.2618 12.6504 41.9848 11.2136 43.6727C10.081 43.9653 8.94254 44.2354 7.79872 44.4826C7.62941 44.5192 7.45866 44.5446 7.2876 44.559ZM13.7659 41.3883C14.3347 39.8994 14.6678 38.195 14.7264 36.4254L23.3162 36.7795C23.1535 38.112 22.6817 39.2966 21.9553 40.1476C21.7377 40.235 21.5202 40.3215 21.3017 40.407C20.8701 40.1924 19.9981 39.8377 18.947 39.8377C18.2339 39.8377 17.4383 40.0009 16.6424 40.4822C16.5395 40.4744 16.437 40.4706 16.3348 40.4706C15.393 40.4706 14.479 40.7908 13.7659 41.3883Z" fill="#4C8800"/>
<path d="M6.9475 45.2007C6.62517 45.2007 6.30433 45.1666 5.99067 45.0983L5.88159 44.7051C5.88159 44.7051 5.97714 44.7167 6.14337 44.7167C6.3929 44.7167 6.80196 44.6904 7.2875 44.5591C7.45856 44.5447 7.62931 44.5193 7.79863 44.4826C8.94245 44.2354 10.0809 43.9653 11.2135 43.6727C11.149 43.7485 11.0835 43.8222 11.0168 43.8936C10.8849 44.0349 10.8419 44.2282 10.8858 44.4031C9.90424 44.6506 8.9183 44.8815 7.92908 45.0952C7.6046 45.1653 7.27529 45.2007 6.9475 45.2007ZM21.6276 40.5903C21.6152 40.5816 21.6027 40.5728 21.5896 40.565C21.5703 40.5524 21.469 40.4904 21.3017 40.4071C21.5201 40.3215 21.7376 40.235 21.9552 40.1476C21.8925 40.2213 21.8277 40.2924 21.7613 40.3607C21.6962 40.4274 21.6516 40.5067 21.6276 40.5903Z" fill="#371A45"/>
<path d="M10.886 44.403C10.8421 44.2281 10.8851 44.0348 11.017 43.8935C11.0837 43.8221 11.1492 43.7484 11.2136 43.6726C12.6504 41.9848 13.5301 39.2618 13.632 36.3806L14.7265 36.4254C14.6679 38.195 14.3347 39.8994 13.766 41.3883C13.6008 41.5264 13.4466 41.6796 13.3051 41.8469C12.7878 42.4598 12.4422 43.1936 12.2698 44.0423C11.9852 44.1191 11.7003 44.194 11.415 44.2679C11.2388 44.3137 11.0625 44.3585 10.886 44.403Z" fill="#371A45"/>
<path d="M23.6936 39.4275C24.0557 38.6524 24.2979 37.7741 24.4057 36.8401C24.4151 36.8401 24.4244 36.8405 24.4341 36.8405C24.8149 36.8405 25.3266 36.7913 25.7822 36.5835L25.7445 36.9667C25.6448 37.9806 25.0109 38.8579 24.0906 39.2564C23.9585 39.3138 23.8261 39.3708 23.6936 39.4275Z" fill="#C6BFCA"/>
<path d="M23.1938 40.317C23.3796 40.0397 23.5463 39.742 23.6934 39.4275C23.8259 39.3708 23.9583 39.3137 24.0904 39.2564C25.0107 38.8579 25.6446 37.9806 25.7443 36.9667L25.782 36.5835C26.036 36.4676 26.2726 36.3022 26.4592 36.0684L26.3642 37.0287C26.2426 38.2632 25.4698 39.341 24.337 39.8313C23.9567 39.9961 23.5756 40.1581 23.1938 40.317Z" fill="#371A45"/>
<path d="M21.8399 40.8672C21.7972 40.7579 21.7243 40.6614 21.6277 40.5903C21.6517 40.5066 21.6962 40.4274 21.7614 40.3606C21.8278 40.2923 21.8926 40.2212 21.9552 40.1476C22.6817 39.2966 23.1535 38.112 23.3162 36.7795L23.8603 36.8017C23.8603 36.8017 24.0825 36.8384 24.4057 36.8402C24.2978 37.7742 24.0557 38.6524 23.6936 39.4276C23.5465 39.7421 23.3797 40.0398 23.194 40.3171C22.8468 40.4615 22.499 40.6037 22.1509 40.7432C22.0472 40.7848 21.9437 40.8259 21.8399 40.8672Z" fill="#371A45"/>
<path d="M21.2583 41.0956C21.2103 41.0658 20.2265 40.4683 18.9494 40.4683C18.5433 40.4683 18.1079 40.5288 17.6632 40.687C17.3269 40.5749 16.9841 40.5072 16.6426 40.4821C17.4385 40.0009 18.2341 39.8376 18.9472 39.8376C19.9983 39.8376 20.8703 40.1923 21.3019 40.4069C21.4693 40.4903 21.5706 40.5523 21.5899 40.5648C21.603 40.5727 21.6155 40.5814 21.6279 40.5902C21.7245 40.6613 21.7975 40.7578 21.8401 40.8672C21.6466 40.9439 21.4531 41.0201 21.2583 41.0956Z" fill="#371A45"/>
<path d="M27.6529 51.8594C27.159 54.3972 25.78 56.1769 23.7372 57.3847C22.5607 58.0834 21.163 58.5925 19.5892 58.9481L16.3964 53.1518C16.3964 53.1518 15.8978 52.8839 15.2698 52.2041C15.2122 52.143 15.1545 52.0772 15.0938 52.0082C14.5889 51.4223 14.0233 50.578 13.5683 49.4093C13.2613 48.6198 13.0042 47.6814 12.8499 46.5723C12.5523 44.4245 13.0774 43.0851 13.7802 42.2517C14.7042 41.1582 16.2359 40.8245 17.576 41.3196C18.9753 41.8365 19.6796 42.6903 19.9242 43.6882C20.0177 44.0642 20.0442 44.4637 20.0161 44.8725C22.7087 39.6778 26.1477 43.9608 24.4586 49.3529L27.6529 51.8594Z" fill="#F6F6F6"/>
<path d="M19.6401 46.5764C19.6401 46.5764 20.044 48.3999 21.6801 48.7655V50.9521C21.6801 51.9463 20.8462 52.7346 19.8592 52.6735L19.1618 52.6299C18.2253 52.572 17.5091 51.7683 17.554 50.8262L17.5923 50.0222L19.6401 46.5764Z" fill="#85C742"/>
<path d="M16.3318 41.7231C15.5318 41.7231 14.7668 42.0524 14.2554 42.6581C13.504 43.5479 13.2388 44.8359 13.4678 46.4858C14.1108 51.1194 16.5883 52.5428 16.6933 52.6011C16.7962 52.6581 16.8847 52.7452 16.9414 52.8483L19.9057 58.2285C23.9025 57.2212 26.2165 55.2147 26.961 52.111L24.0755 49.847C23.8708 49.686 23.7866 49.4143 23.8645 49.1649C24.8203 46.1117 23.9789 43.6425 22.9548 43.2161C22.2621 42.9272 21.3966 43.6143 20.6259 45.0546C20.4187 47.2754 18.8673 49.6346 17.6588 50.875C17.4179 51.1222 17.0234 51.1263 16.7772 50.8841C16.5313 50.6419 16.5272 50.2452 16.7681 49.998C17.8103 48.9284 19.2454 46.7847 19.3934 44.9042C19.3912 44.8578 19.394 44.8108 19.4021 44.7642C19.4155 44.4631 19.3943 44.1701 19.3317 43.89C19.1257 42.9704 18.4812 42.3222 17.3615 41.9086C17.0234 41.7836 16.6743 41.7231 16.3318 41.7231ZM19.5894 59.5748C19.3666 59.5748 19.1559 59.4541 19.0444 59.2517L15.9307 53.6005C15.2613 53.1634 12.878 51.3049 12.2331 46.6591C11.9529 44.6401 12.3135 43.0209 13.3048 41.8469C14.3725 40.5827 16.1751 40.1349 17.7919 40.7321C19.3794 41.3193 20.0924 42.2893 20.4053 43.1334C21.6952 41.5987 22.9025 41.8378 23.4317 42.0581C25.0547 42.7339 26.1339 45.5925 25.1765 49.1211L28.0368 51.3653C28.2219 51.5107 28.3101 51.7482 28.2652 51.9797C27.4914 55.9544 24.6985 58.4337 19.7265 59.5594C19.681 59.5698 19.6349 59.5748 19.5894 59.5748Z" fill="#371A45"/>
<path d="M19.9636 53.3032C19.9162 53.3032 19.8685 53.3017 19.8211 53.2988L19.1237 53.2556C17.854 53.1766 16.8708 52.0735 16.9319 50.7964L16.9702 49.9921C16.9864 49.6465 17.2763 49.3809 17.6225 49.3962C17.9662 49.4128 18.2318 49.7067 18.2152 50.0523L18.1769 50.8562C18.1485 51.4528 18.6076 51.9679 19.2003 52.0045L19.8978 52.0481C20.2023 52.066 20.4912 51.9619 20.7131 51.752C20.9349 51.5424 21.0571 51.2582 21.0571 50.9521V49.2251C19.4631 48.576 19.0501 46.7954 19.0317 46.7127C18.9569 46.3749 19.1686 46.04 19.5045 45.9648C19.8401 45.8899 20.172 46.1014 20.2481 46.4376C20.263 46.5028 20.5996 47.882 21.8156 48.1539C22.1008 48.2175 22.3037 48.4719 22.3037 48.7655V50.9521C22.3037 51.5982 22.035 52.2226 21.5673 52.665C21.1335 53.0748 20.5557 53.3032 19.9636 53.3032Z" fill="#371A45"/>
<path d="M21.2661 48.4543L23.1092 47.6429L22.0954 49.3899L21.2661 48.4543Z" fill="#371A45"/>
<path d="M8.89729 37.9879L7.09967 37.4409C6.6586 37.3068 6.2986 37.0229 6.06714 36.6538C6.14427 36.6645 6.22505 36.6711 6.30788 36.6711C6.78445 36.6711 7.33019 36.4605 7.66175 35.6475L7.66088 35.6688C7.62918 35.8552 7.60251 36.0466 7.56293 36.2365L7.40577 36.8011L7.69123 36.2829C7.77531 36.1036 7.84827 35.9169 7.92677 35.7299L8.00988 35.4354C8.0384 35.3363 8.06791 35.2367 8.07708 35.1321L8.11298 34.8639L9.08555 35.0108C9.09533 35.2229 9.10038 35.4391 9.10038 35.6594C9.10038 36.5003 9.02696 37.2811 8.89729 37.9879Z" fill="#4C8800"/>
<path d="M9.3232 38.1172L8.89722 37.9878C9.02689 37.281 9.10031 36.5002 9.10031 35.6592C9.10031 35.439 9.09527 35.2228 9.08548 35.0107L9.63397 35.0937L9.3232 38.1172Z" fill="#371A45"/>
<path d="M9.2418 38.9105L6.94169 37.9656L5.36304 36.4272C5.36304 36.4272 5.66698 36.5986 6.06719 36.6537C6.29865 37.0228 6.65866 37.3067 7.09973 37.4408L8.89734 37.9878L9.32333 38.1172L9.2418 38.9105Z" fill="#371A45"/>
<path d="M7.40552 36.8011L7.56268 36.2365C7.60226 36.0466 7.62894 35.8552 7.66063 35.6688L7.6615 35.6475C7.75297 35.4231 7.8281 35.1531 7.88102 34.8288L8.11273 34.8639L8.07683 35.1321C8.06766 35.2367 8.03815 35.3363 8.00963 35.4354L7.92652 35.7299C7.84802 35.9169 7.77506 36.1037 7.69098 36.2829L7.40552 36.8011Z" fill="#371A45"/>
<path d="M19.9058 58.2284L16.9415 52.8482C16.8848 52.7451 16.7963 52.658 16.6934 52.601C16.6118 52.5559 15.1006 51.6877 14.1277 49.1339C17.8845 47.15 18.5514 43.9244 18.6671 42.6874C19.0064 43.0208 19.2265 43.42 19.3318 43.8899C19.3944 44.17 19.4156 44.463 19.4022 44.7641C19.3941 44.8108 19.3913 44.8578 19.3935 44.9041C19.358 45.3562 19.248 45.8237 19.0872 46.2874C19.0616 46.3366 19.0426 46.3892 19.0308 46.4438C18.5059 47.8543 17.5318 49.2144 16.7682 49.998C16.5273 50.2452 16.5314 50.6418 16.7773 50.884C16.8237 50.9298 16.8757 50.9667 16.9306 50.9949C16.9745 52.1858 17.9204 53.1806 19.1236 53.2555L19.8211 53.2987C19.8685 53.3015 19.9161 53.3031 19.9635 53.3031C20.1866 53.3031 20.4079 53.2705 20.6198 53.2082L23.3585 56.8771C22.3934 57.442 21.244 57.8913 19.9058 58.2284Z" fill="#C6BFCA"/>
<path d="M19.5893 58.9481L16.3965 53.1518C16.3965 53.1518 15.8979 52.8839 15.2699 52.2041C15.2123 52.143 15.1546 52.0772 15.0938 52.0082C14.589 51.4223 14.0234 50.578 13.5684 49.4093C13.7619 49.3206 13.9486 49.2285 14.1278 49.1339C15.1007 51.6877 16.6119 52.5559 16.6935 52.601C16.7963 52.6581 16.8849 52.7452 16.9416 52.8482L19.9059 58.2284C21.2441 57.8913 22.3934 57.442 23.3586 56.8771L23.7372 57.3847C22.5608 58.0834 21.1631 58.5925 19.5893 58.9481ZM16.9307 50.995C16.8758 50.9668 16.8238 50.9298 16.7773 50.8841C16.5315 50.6419 16.5274 50.2452 16.7683 49.998C17.5318 49.2144 18.506 47.8543 19.0308 46.4438C19.0124 46.53 19.0115 46.6211 19.0318 46.7126C19.0367 46.7355 19.0717 46.8862 19.1524 47.1065C18.8756 47.6435 18.5216 48.2406 18.0794 48.9221C17.9691 49.0919 17.8587 49.2561 17.7472 49.4149C17.7073 49.4046 17.6655 49.3983 17.6225 49.3961C17.6129 49.3958 17.6032 49.3955 17.5935 49.3955C17.2601 49.3955 16.9861 49.6562 16.9702 49.9921L16.9319 50.7963C16.9285 50.8631 16.9282 50.9292 16.9307 50.995ZM19.0872 46.2875C19.248 45.8238 19.3581 45.3563 19.3936 44.9042C19.3914 44.8578 19.3942 44.8108 19.4023 44.7641C19.4157 44.463 19.3945 44.1701 19.3319 43.89C19.2265 43.42 19.0065 43.0209 18.6671 42.6875C18.6971 42.3692 18.6902 42.1827 18.6902 42.1827L19.9243 43.6882C19.9944 44.1503 19.9913 44.6125 19.8947 45.1138C19.8442 45.3795 19.7682 45.6561 19.6635 45.95C19.656 45.9497 19.6485 45.9497 19.6407 45.9497C19.5958 45.9497 19.5503 45.9547 19.5045 45.9647C19.3175 46.0067 19.1692 46.1289 19.0872 46.2875Z" fill="#371A45"/>
<path d="M19.9635 53.3032C19.9161 53.3032 19.8684 53.3017 19.8211 53.2988L19.1236 53.2556C17.9204 53.1807 16.9745 52.186 16.9306 50.995C16.9281 50.9293 16.9284 50.8631 16.9318 50.7964L16.9702 49.9921C16.9861 49.6563 17.26 49.3956 17.5935 49.3956C17.6031 49.3956 17.6128 49.3959 17.6224 49.3962C17.6654 49.3984 17.7072 49.4047 17.7471 49.415C17.725 49.4467 17.7028 49.4783 17.6804 49.5096C17.4934 49.7728 17.3064 50.0188 17.121 50.249L17.5542 50.8255L18.137 52.2041L20.2094 52.6584L20.6198 53.2083C20.4079 53.2706 20.1866 53.3032 19.9635 53.3032ZM19.1523 47.1065C19.0716 46.8863 19.0367 46.7356 19.0317 46.7127C19.0114 46.6212 19.0124 46.53 19.0307 46.4439C19.0426 46.3893 19.0616 46.3367 19.0872 46.2875C19.1691 46.129 19.3175 46.0068 19.5044 45.9648C19.5503 45.9548 19.5958 45.9498 19.6406 45.9498C19.6484 45.9498 19.6559 45.9498 19.6634 45.9501C19.5365 46.3063 19.3679 46.6882 19.1523 47.1065Z" fill="#371A45"/>
<path d="M23.8445 49.2483C23.4911 49.1972 22.8588 49.086 22.3321 48.9813L23.1088 47.6429L21.8949 48.1771C21.8693 48.1677 21.8429 48.1598 21.8154 48.1539C20.821 47.9314 20.4149 46.9686 20.2915 46.5895C20.4308 46.1694 20.5355 45.7439 20.5947 45.3215C21.0784 45.7082 21.9385 46.2521 22.8018 46.2521C23.296 46.2521 23.7916 46.0741 24.2182 45.586C24.3581 46.5811 24.2868 47.8161 23.8645 49.1649C23.8558 49.1925 23.8492 49.2204 23.8445 49.2483Z" fill="#C6BFCA"/>
<path d="M24.0982 49.2772C24.0598 49.2772 23.9698 49.2665 23.8448 49.2483C23.8495 49.2205 23.856 49.1926 23.8648 49.165C24.287 47.8162 24.3584 46.5811 24.2185 45.586C24.3933 45.3858 24.5569 45.1333 24.704 44.8197L25.0135 47.3948C25.0135 47.3948 24.1758 49.2355 24.1175 49.2747C24.115 49.2762 24.1085 49.2772 24.0982 49.2772ZM20.2918 46.5896C20.2643 46.505 20.2509 46.4495 20.2481 46.4376C20.2145 46.2894 20.1313 46.1653 20.02 46.0795L20.2095 44.9666C20.2494 45.0192 20.3874 45.1558 20.595 45.3216C20.5358 45.7439 20.4311 46.1694 20.2918 46.5896Z" fill="#371A45"/>
<path d="M21.5863 48.8159C21.5084 48.7946 21.4592 48.7771 21.4492 48.7655C21.3688 48.6734 20.1743 47.734 20.116 47.6429C20.058 47.5514 19.9727 46.357 19.9727 46.357L20.02 46.0794C20.1313 46.1653 20.2145 46.2894 20.2481 46.4376C20.251 46.4495 20.2644 46.5049 20.2918 46.5895C20.4152 46.9686 20.8213 47.9314 21.8157 48.1539C21.8431 48.1598 21.8696 48.1677 21.8952 48.1771L21.266 48.4544L21.5863 48.8159Z" fill="#371A45"/>
<path d="M22.3326 48.9813C22.0197 48.919 21.7442 48.8591 21.5865 48.8159L21.2661 48.4543L21.8953 48.1771L23.1092 47.6429L22.3326 48.9813Z" fill="#371A45"/>
<path d="M56.0349 56.5068L62.5956 56.2449C63.3283 56.2154 63.9681 56.739 64.0887 57.4662L64.4539 59.6684C64.592 60.5015 64.0017 61.2789 63.1659 61.3644L56.0349 62.0944V56.5068Z" fill="#FCFCFC"/>
<path d="M37.1284 57.1857C36.8077 57.2261 31.6635 57.4217 29.3302 57.5091C28.696 57.5329 28.1946 58.0564 28.1946 58.6946V61.6113C28.1946 62.2771 28.74 62.8125 29.4022 62.7972L37.1284 62.6164V57.1857Z" fill="#FCFCFC"/>
<path d="M56.0342 62.7212C55.7185 62.7212 55.4476 62.4806 55.4149 62.1579C55.38 61.8135 55.6293 61.5062 55.9718 61.4711L63.1028 60.7411C63.3341 60.7176 63.5388 60.6023 63.68 60.4168C63.8209 60.231 63.8776 60.0019 63.8392 59.7717L63.4743 57.5694C63.4054 57.1546 63.0371 56.8538 62.6204 56.8713L56.0597 57.1333C55.7144 57.1467 55.4258 56.8776 55.4121 56.532C55.3984 56.1861 55.6664 55.8947 56.0102 55.8809L62.5709 55.6187C63.6217 55.5792 64.5317 56.3271 64.7037 57.3632L65.0687 59.5658C65.1628 60.1329 65.0179 60.7201 64.6707 61.1772C64.3235 61.6343 63.7981 61.9298 63.2294 61.988L56.098 62.7177C56.0765 62.7199 56.0554 62.7212 56.0342 62.7212Z" fill="#371A45"/>
<path d="M29.3735 63.4241C28.8998 63.4241 28.4545 63.2418 28.1145 62.9078C27.7642 62.5638 27.5713 62.1035 27.5713 61.6113V58.6944C27.5713 57.7149 28.3336 56.9194 29.3071 56.8831C33.9039 56.7108 36.7996 56.5914 37.0536 56.5635C37.3933 56.5278 37.704 56.7716 37.7439 57.1134C37.7835 57.4552 37.5454 57.7651 37.2057 57.8077C36.9511 57.8396 34.3093 57.9499 29.3533 58.1354C29.0531 58.1467 28.8179 58.392 28.8179 58.6944V61.6113C28.8179 61.7629 28.8774 61.9052 28.9855 62.0114C29.094 62.1179 29.2445 62.1771 29.3875 62.1706L37.1141 61.9901C37.4547 61.9838 37.7436 62.2561 37.7517 62.602C37.7595 62.9479 37.4871 63.2349 37.1431 63.243L29.4165 63.4235C29.4022 63.4238 29.3879 63.4241 29.3735 63.4241Z" fill="#371A45"/>
<path d="M57.5939 63.1246C57.6671 64.9433 56.26 66.4754 54.451 66.5475L39.9284 67.1318C38.1209 67.2055 36.5954 65.7909 36.5237 63.9721L36.3944 60.7371L36.1918 55.6332C36.1202 53.8145 37.5272 52.2824 39.3347 52.2103L53.8573 51.626C54.3123 51.6072 54.7501 51.6839 55.1506 51.8359C56.3411 52.2902 57.2074 53.4244 57.262 54.7857L57.5939 63.1246Z" fill="#FCFCFC"/>
<path d="M53.9902 52.2495C53.9544 52.2495 53.9186 52.2504 53.8827 52.2517L39.3602 52.8357C37.898 52.8946 36.7564 54.1381 36.8147 55.6079L37.1466 63.947C37.2052 65.4171 38.4471 66.56 39.904 66.5062L54.4265 65.9221C55.8884 65.8632 57.0303 64.6197 56.9717 63.1499L56.6401 54.8105C56.5831 53.3771 55.4048 52.2495 53.9902 52.2495ZM39.7959 67.7616C37.7166 67.7616 35.9848 66.1045 35.901 63.9971L35.5691 55.658C35.4834 53.4977 37.1616 51.6698 39.3103 51.5837L53.8329 50.9994C55.9847 50.9113 57.7997 52.6001 57.8858 54.7607L58.2177 63.0998C58.3034 65.2601 56.6252 67.088 54.4764 67.1744L39.9539 67.7581C39.9012 67.7603 39.8482 67.7616 39.7959 67.7616Z" fill="#371A45"/>
<path d="M46.5815 67.1859C46.2805 67.1859 46.0361 66.9402 46.0361 66.6376V61.8266C46.0361 60.9967 46.4098 60.2287 47.0614 59.719L49.1719 58.0691C49.5558 57.7686 49.7758 57.3162 49.7758 56.8271V52.0685C49.7758 51.7655 50.0202 51.5202 50.3212 51.5202C50.6223 51.5202 50.8666 51.7655 50.8666 52.0685V56.8271C50.8666 57.6571 50.4929 58.425 49.8413 58.9344L47.7312 60.5847C47.3472 60.8848 47.1269 61.3376 47.1269 61.8266V66.6376C47.1269 66.9402 46.8826 67.1859 46.5815 67.1859Z" fill="#371A45"/>
<path d="M43.1115 57.9691C43.1115 59.2606 42.151 60.3074 40.9661 60.3074C39.7813 60.3074 38.8208 59.2606 38.8208 57.9691C38.8208 56.6776 39.7813 55.6309 40.9661 55.6309C42.151 55.6309 43.1115 56.6776 43.1115 57.9691Z" fill="#22A7F0"/>
<path d="M40.9661 56.0939C40.0371 56.0939 39.2814 56.9351 39.2814 57.969C39.2814 59.003 40.0371 59.8439 40.9661 59.8439C41.8951 59.8439 42.6506 59.003 42.6506 57.969C42.6506 56.9351 41.8951 56.0939 40.9661 56.0939ZM40.9661 60.7707C39.5291 60.7707 38.3599 59.514 38.3599 57.969C38.3599 56.4244 39.5291 55.1674 40.9661 55.1674C42.4031 55.1674 43.5721 56.4244 43.5721 57.969C43.5721 59.514 42.4031 60.7707 40.9661 60.7707Z" fill="#371A45"/>
<path d="M38.427 74.1571C40.1105 74.8078 41.7899 75.3611 43.5037 75.6641C45.2136 75.9749 46.9426 76.0473 48.6523 75.8747C50.3629 75.7042 52.0508 75.2941 53.6987 74.712C55.3507 74.1339 56.9551 73.3816 58.5797 72.5905C57.2474 73.8134 55.7247 74.8367 54.0711 75.6237C52.4179 76.4073 50.6203 76.9405 48.7742 77.1216C46.9295 77.3074 45.0463 77.1348 43.2787 76.6197C41.5098 76.1053 39.8584 75.2615 38.427 74.1571Z" fill="#371A45"/>
<path d="M32.0554 45.2006C31.7407 46.2136 31.4898 47.2369 31.2645 48.2626C31.209 48.5193 31.151 48.7746 31.1024 49.0325C31.051 49.2897 30.9974 49.5454 30.9544 49.8041C30.9092 50.062 30.8569 50.318 30.8148 50.5762L30.6914 51.35C30.5362 52.3827 30.4053 53.416 30.3062 54.4509C30.2753 54.7091 30.2429 54.9666 30.2227 55.2254L30.1382 55.9996C30.0784 56.5156 30.0351 57.0326 29.9522 57.5483L29.9481 57.5734C29.8929 57.9155 29.5723 58.148 29.2323 58.0925C28.9244 58.0424 28.7062 57.7739 28.7078 57.47C28.7131 56.3969 28.81 55.325 28.9914 54.2679L29.1347 53.4765C29.1886 53.2139 29.2497 52.9526 29.308 52.6913C29.3644 52.4294 29.4298 52.1697 29.4969 51.9102C29.5651 51.6511 29.6237 51.3905 29.6997 51.1335C29.9871 50.1027 30.323 49.087 30.7076 48.0922C31.0968 47.0999 31.5256 46.1215 32.0554 45.2006Z" fill="#371A45"/>
<path d="M59.1514 42.9301C59.6366 43.5203 60.0648 44.1598 60.4659 44.8159C60.8645 45.4739 61.2359 46.1522 61.5682 46.8515C61.8972 47.5517 62.2101 48.2648 62.4713 48.9989C62.6125 49.363 62.7262 49.7359 62.849 50.1074C62.969 50.48 63.0662 50.8591 63.1759 51.2363C63.2728 51.57 63.0827 51.919 62.7512 52.0168C62.4196 52.1142 62.0721 51.9228 61.9752 51.5894C61.9674 51.5631 61.9614 51.5365 61.9574 51.5098L61.9518 51.4735C61.8969 51.106 61.8546 50.7341 61.7891 50.3662C61.7209 49.9993 61.6616 49.6284 61.5744 49.264C61.4211 48.5293 61.2148 47.8052 60.9897 47.0849C60.7613 46.3652 60.4911 45.6578 60.1898 44.9613C59.8856 44.2663 59.5515 43.5805 59.1514 42.9301Z" fill="#371A45"/>
<path d="M74.0069 38.3234C73.9941 38.3234 73.981 38.323 73.9679 38.3221C67.5983 37.9273 65.0403 32.6969 64.9343 32.4744C64.786 32.1621 64.9172 31.788 65.2279 31.6388C65.538 31.4894 65.9101 31.6216 66.0587 31.9333C66.1569 32.137 68.4291 36.7233 74.0446 37.0714C74.3883 37.0927 74.6495 37.39 74.6283 37.7353C74.608 38.0677 74.3335 38.3234 74.0069 38.3234Z" fill="#371A45"/>
<path d="M74.9 20.213C75.0191 20.2628 75.0755 20.2932 75.1553 20.3349C75.2263 20.3747 75.2986 20.4151 75.3634 20.4605C75.4311 20.5038 75.4959 20.5498 75.5579 20.5984C75.6221 20.6447 75.6829 20.6949 75.7405 20.7478C75.8608 20.8497 75.9674 20.9634 76.0752 21.0765C76.1746 21.1962 76.2766 21.3146 76.3616 21.444C76.7185 21.9516 76.9541 22.5312 77.0728 23.1143C77.1292 23.406 77.1753 23.6989 77.1825 23.9897L77.1943 24.2074L77.1922 24.4186C77.1884 24.5599 77.194 24.6987 77.18 24.8416C77.1432 25.4068 77.0535 25.9842 76.8378 26.5513L76.7537 26.7625L76.6474 26.9699C76.6144 27.0388 76.5729 27.1062 76.528 27.1723C76.4829 27.2384 76.4455 27.3061 76.3928 27.3691C76.2014 27.626 75.9443 27.8569 75.6386 28.0139C75.3335 28.1727 74.9733 28.2382 74.6326 28.1947C74.2711 28.1477 73.9729 27.9756 73.736 27.7739C73.4983 27.5683 73.3219 27.3193 73.1866 27.0589C73.0532 26.7976 72.9563 26.5222 72.9136 26.2402C72.8669 25.9601 72.8538 25.6772 72.8887 25.4024C72.9105 25.1264 72.9893 24.8619 73.0738 24.6078C73.0875 24.5668 73.1318 24.5446 73.1726 24.5583C73.2087 24.5706 73.2302 24.6063 73.2253 24.6429L73.2246 24.647C73.1583 25.158 73.1929 25.6706 73.3571 26.1255C73.5195 26.5764 73.8043 26.9818 74.1652 27.2083C74.3419 27.3215 74.5332 27.3857 74.695 27.3788C74.8751 27.3738 75.0424 27.3117 75.1899 27.2118C75.4893 27.0122 75.6891 26.6262 75.8019 26.1998C75.9191 25.7718 75.9521 25.2949 75.9356 24.8143C75.9247 24.3243 75.8714 23.8559 75.7664 23.4176C75.6561 22.9789 75.4828 22.5735 75.2466 22.2185C75.1303 22.0396 74.9951 21.8758 74.8474 21.7285C74.8109 21.6906 74.7735 21.6549 74.7345 21.621C74.6968 21.585 74.6579 21.5515 74.618 21.5208C74.5784 21.4876 74.5391 21.46 74.5002 21.4296C74.4678 21.4048 74.4107 21.3701 74.4111 21.3657L74.5092 20.4455C74.5257 20.2891 74.6654 20.1757 74.8212 20.1926C74.8486 20.1955 74.8757 20.203 74.9 20.213Z" fill="#371A45"/>
<path d="M77.1466 24.5439C77.1453 24.5593 77.1587 24.6088 77.1671 24.6436L77.1999 24.7601C77.2238 24.8391 77.2516 24.9177 77.2812 24.996C77.341 25.153 77.4127 25.3059 77.4944 25.4525C77.6577 25.7458 77.8646 26.0143 78.1257 26.222C78.3847 26.4335 78.7035 26.5758 79.0572 26.6328C79.4103 26.6848 79.7905 26.6528 80.1608 26.5595C79.8295 26.7487 79.4596 26.8931 79.0548 26.9461C78.8525 26.969 78.6437 26.9677 78.434 26.9398C78.2242 26.9107 78.0173 26.8496 77.8182 26.7672C77.4183 26.6008 77.0627 26.338 76.7595 26.0337C76.6074 25.8815 76.4662 25.7182 76.3372 25.5453C76.2727 25.4588 76.2104 25.3698 76.1509 25.278L76.0633 25.1364C76.0337 25.0838 76.0094 25.0458 75.9751 24.9722L77.1466 24.5439Z" fill="#371A45"/>
<path d="M40.3732 88.7532C39.916 88.7532 39.4507 88.7338 38.977 88.6946C36.0504 88.454 33.867 87.5639 33.7754 87.526C33.4572 87.3947 33.3051 87.0284 33.4357 86.7082C33.5663 86.3883 33.93 86.2351 34.2485 86.3664C34.3311 86.4006 42.5646 89.7019 47.8944 84.8155C48.1487 84.5821 48.5429 84.6006 48.7751 84.8562C49.0069 85.1119 48.9885 85.5083 48.7342 85.7414C46.5717 87.7243 43.7018 88.7532 40.3732 88.7532Z" fill="#371A45"/>
<path d="M55.9028 87.7614C53.6973 87.7614 52.0917 87.3475 51.9452 87.3086C51.6124 87.2196 51.4145 86.8766 51.5027 86.5419C51.5909 86.2076 51.9327 86.009 52.2646 86.097C52.3394 86.1168 59.7986 88.0223 64.6001 83.2218C64.8441 82.9774 65.2389 82.9786 65.4814 83.224C65.7242 83.4693 65.7229 83.8662 65.4789 84.1103C62.5002 87.0887 58.7141 87.7614 55.9028 87.7614Z" fill="#371A45"/>
<path d="M66.1892 91.1801C66.1668 91.1742 66.106 91.1704 66.0589 91.1679C66.0097 91.1639 65.9561 91.1642 65.9041 91.1626C65.799 91.1617 65.6915 91.1613 65.5831 91.1673C65.3662 91.1748 65.1458 91.1955 64.9255 91.2231C64.4839 91.2782 64.0411 91.3688 63.6001 91.4822C63.1616 91.6031 62.7228 91.7419 62.2934 91.913C62.0755 91.9916 61.8674 92.0925 61.652 92.1821C61.4404 92.2786 61.2325 92.3842 61.0212 92.4857C61.2042 92.3403 61.3852 92.1903 61.5725 92.0474C61.7639 91.9114 61.9496 91.7632 62.1488 91.6354C62.5393 91.3669 62.9503 91.1253 63.3738 90.8985C63.8008 90.6785 64.2421 90.4777 64.703 90.3101C64.9336 90.2264 65.1683 90.149 65.4104 90.0845C65.5307 90.0503 65.6541 90.0221 65.7794 89.9943C65.843 89.9817 65.9047 89.9676 65.9714 89.957C66.0402 89.9454 66.0957 89.935 66.1892 89.9269L66.2967 89.9178C66.6486 89.8877 66.958 90.15 66.9879 90.5037C67.0179 90.8574 66.7567 91.1686 66.4049 91.1986C66.3313 91.2049 66.2568 91.1977 66.1892 91.1801Z" fill="#371A45"/>
<path d="M36.4455 91.7203L38.8424 92.9557L36.1492 92.9375C35.7951 92.9353 35.5103 92.6449 35.5125 92.2893C35.515 91.9337 35.8038 91.647 36.1576 91.6495C36.2601 91.6501 36.3598 91.6764 36.4455 91.7203Z" fill="#371A45"/>
<path d="M62.6403 53.3329C62.3636 53.3329 62.1109 53.1462 62.0379 52.8642C61.951 52.5296 62.1504 52.1871 62.4836 52.0997L64.9166 51.4618C65.25 51.3741 65.59 51.5752 65.677 51.9101C65.7636 52.2451 65.5642 52.5872 65.231 52.6746L62.7984 53.3125C62.7454 53.3263 62.6924 53.3329 62.6403 53.3329Z" fill="#371A45"/>
<mask id="mask0_1091_987" style="mask-type:luminance" maskUnits="userSpaceOnUse" x="21" y="53" width="9" height="9">
<path d="M26.4153 61.0593C25.0344 61.059 23.3459 60.8497 22.1324 60.01C21.7771 59.7644 21.4829 59.4793 21.2473 59.1519C23.8283 58.3407 25.7007 57.0806 26.8943 55.3451C27.501 55.076 28.3138 54.5371 29.1393 53.4565C29.1378 53.4631 29.1365 53.4699 29.135 53.4765L28.9916 54.268C28.8364 55.1725 28.7429 56.0877 28.7161 57.0054C28.0424 57.2689 27.5715 57.9249 27.5715 58.6944V61.0126C27.2296 61.0396 26.8366 61.0593 26.4153 61.0593Z" fill="white"/>
</mask>
<g mask="url(#mask0_1091_987)">
<path d="M21.2473 61.0593H29.1393V53.4565H21.2473V61.0593Z" fill="#CBC3CE"/>
</g>
<path d="M25.8616 61.8693C24.2688 61.8693 22.1406 61.4091 20.866 59.2669C20.9947 59.2297 21.1215 59.1914 21.2471 59.152C21.4827 59.4794 21.7769 59.7645 22.1322 60.0101C23.3457 60.8498 25.0342 61.0591 26.4151 61.0594C26.8364 61.0594 27.2294 61.0397 27.5713 61.0127V61.6115C27.5713 61.6406 27.5719 61.6694 27.5734 61.6986C27.2013 61.7738 26.5868 61.8693 25.8616 61.8693Z" fill="#371A45"/>
<path d="M20.8662 59.2668C20.8051 59.1643 20.7465 59.0584 20.6895 58.9481C20.6895 58.9481 20.7128 58.9497 20.7571 58.9497C21.1812 58.9497 23.5382 58.7993 25.887 55.6129C25.8933 55.6129 26.2922 55.612 26.8943 55.345C25.7007 57.0805 23.8283 58.3406 21.2473 59.1518C21.1217 59.1913 20.9949 59.2295 20.8662 59.2668Z" fill="#371A45"/>
<path d="M27.5735 61.6984C27.5719 61.6693 27.5713 61.6405 27.5713 61.6113V61.0126V58.6944C27.5713 57.9249 28.0422 57.2688 28.716 57.0053C28.7113 57.1601 28.7088 57.3152 28.7078 57.47C28.7072 57.6125 28.7546 57.7472 28.8372 57.8553L28.4024 58.9482L27.9559 61.6085C27.9559 61.6085 27.8162 61.6492 27.5735 61.6984Z" fill="#371A45"/>
<path d="M28.8371 57.8553C28.7545 57.7473 28.7071 57.6125 28.7078 57.47C28.7087 57.3152 28.7112 57.1601 28.7159 57.0053C28.7427 56.0876 28.8362 55.1724 28.9914 54.2679L29.1347 53.4765C29.1363 53.4699 29.1375 53.463 29.1391 53.4564C29.4358 53.0679 29.7343 52.6092 30.0251 52.0685L29.3301 56.52L28.8698 57.7733L28.8371 57.8553Z" fill="#371A45"/>
<path d="M64.3832 90.4327C64.3262 89.9423 64.0959 88.0086 63.74 85.5466C64.0317 85.3492 64.3196 85.1355 64.6023 84.9043C64.9753 87.2322 65.3057 89.1378 65.4696 90.0683C65.45 90.0736 65.43 90.0789 65.4104 90.0846C65.1682 90.1491 64.9336 90.2265 64.703 90.3102C64.5954 90.3493 64.4889 90.3901 64.3832 90.4327Z" fill="#CBC3CE"/>
<path d="M65.4693 90.0682C65.3054 89.1377 64.9751 87.2321 64.6021 84.9042C64.79 84.7504 64.9751 84.589 65.158 84.4192C65.5532 86.9075 65.9081 88.9619 66.0799 89.9392C66.0421 89.9448 66.0088 89.9507 65.9711 89.957C65.9044 89.9677 65.8427 89.9818 65.7791 89.9943C65.6744 90.0175 65.5709 90.041 65.4693 90.0682Z" fill="#371A45"/>
<path d="M63.5333 84.152C62.9869 80.5712 62.2222 76.317 61.3589 73.7131C60.4287 70.9058 60.4349 67.569 60.6344 65.1048L59.3223 65.4103C58.7988 69.0225 54.8247 69.9348 50.7905 69.9348C47.7389 69.9351 44.6533 69.4132 42.9985 69.1434C40.9108 68.8032 39.9251 68.2141 39.4604 67.7473C39.5711 67.7567 39.6833 67.7617 39.7961 67.7617C39.8484 67.7617 39.9014 67.7604 39.9541 67.7582L54.4766 67.1745C56.6254 67.0881 58.3036 65.2602 58.2179 63.0999L58.1939 62.5034L62.5095 62.0616C62.655 65.0634 62.785 68.0706 62.8395 70.2043C62.9228 73.475 63.6763 78.9689 64.3719 83.4433C64.0995 83.6993 63.8193 83.9352 63.5333 84.152Z" fill="#CBC3CE"/>
<path d="M64.3717 83.4433C63.6761 78.9689 62.9225 73.4749 62.8393 70.2043C62.7848 68.0706 62.6548 65.0634 62.5093 62.0616L63.1307 61.998C63.2547 64.564 63.3682 67.1379 63.433 69.1766C63.4168 69.1747 63.4006 69.1725 63.3844 69.17L63.466 70.3174C63.5623 73.4774 64.2726 78.6994 64.9435 83.0466C64.8179 83.0664 64.697 83.1247 64.6001 83.2218C64.5244 83.2973 64.4486 83.3709 64.3717 83.4433Z" fill="#371A45"/>
<path d="M60.2312 55.7122L59.7285 43.9723C59.8915 44.2979 60.0442 44.6284 60.1897 44.9611C60.4911 45.6576 60.7613 46.3651 60.9897 47.0848C61.2147 47.8051 61.421 48.5291 61.5744 49.2639C61.6616 49.6282 61.7208 49.9992 61.7891 50.3661C61.8508 50.7132 61.8922 51.0642 61.9427 51.4116C61.982 52.095 62.0705 53.6512 62.178 55.6341L60.2312 55.7122Z" fill="#CBC3CE"/>
<path d="M62.1777 55.6343C62.0702 53.6513 61.9816 52.0951 61.9424 51.4118C61.9455 51.4321 61.9486 51.4528 61.9514 51.4735L61.957 51.5098C61.9611 51.5365 61.967 51.5631 61.9748 51.5894C62.0546 51.8639 62.3042 52.0421 62.575 52.0421C62.5841 52.0421 62.5934 52.0418 62.6024 52.0415C62.6031 52.0503 62.6037 52.0594 62.604 52.0682L62.4831 52.0998C62.1499 52.1872 61.9505 52.5297 62.0374 52.8643C62.1104 53.1463 62.3631 53.333 62.6398 53.333C62.6517 53.333 62.6635 53.3327 62.6754 53.3321C62.7124 53.9935 62.7555 54.7689 62.8019 55.6227C62.7517 55.6192 62.7009 55.6174 62.6501 55.6174C62.6236 55.6174 62.5971 55.6177 62.5703 55.6186L62.1777 55.6343Z" fill="#371A45"/>
<path d="M61.4944 60.9056C61.764 59.8341 61.4779 57.9107 61.2981 56.9237L62.6204 56.8711C62.6319 56.8705 62.6435 56.8702 62.6547 56.8702C63.057 56.8702 63.4073 57.1656 63.4743 57.5692L63.8392 59.7714C63.8776 60.0017 63.8208 60.2308 63.68 60.4166C63.5388 60.602 63.3341 60.7173 63.1028 60.7408L61.4944 60.9056Z" fill="#CBC3CE"/>
<path d="M58.1937 62.5032L58.1775 62.0937H61.0128C61.0705 61.7601 61.1094 61.5752 61.1094 61.5752C61.2939 61.4502 61.417 61.213 61.4943 60.9057L63.1027 60.7408C63.3339 60.7174 63.5387 60.6021 63.6799 60.4166C63.8207 60.2308 63.8774 60.0017 63.8391 59.7715L63.4742 57.5692C63.4072 57.1656 63.0569 56.8702 62.6545 56.8702C62.6433 56.8702 62.6318 56.8705 62.6203 56.8711L61.298 56.9238C61.2285 56.5434 61.1749 56.3021 61.1749 56.3021L60.254 56.2442L60.2312 55.7122L62.178 55.6342L62.5707 55.6185C62.5975 55.6176 62.624 55.6172 62.6505 55.6172C62.7013 55.6172 62.7521 55.6191 62.8023 55.6226C62.8197 55.9456 62.8378 56.2796 62.8562 56.6233C63.2722 56.7267 63.8565 56.8849 63.8565 56.8849C63.8565 56.8849 64.2274 58.3058 64.3178 58.8447C64.363 59.1188 64.3926 59.5741 64.3651 59.9917H64.3648L63.9906 60.984C63.8257 61.1356 63.6462 61.3283 63.4629 61.4436L63.1086 61.5392C63.1161 61.6921 63.1236 61.845 63.1307 61.9979L62.5093 62.0615L58.1937 62.5032Z" fill="#371A45"/>
<path d="M39.7958 67.7616C39.683 67.7616 39.5708 67.7566 39.4602 67.7472C39.0803 67.3653 39.0482 67.0648 39.0466 67.0479C39.0485 67.0485 39.0504 67.0488 39.0522 67.0494L39.9333 67.3684L46.206 67.035C46.3038 67.1284 46.436 67.1857 46.5815 67.1857C46.7476 67.1857 46.8966 67.1108 46.9966 66.993L53.6969 66.6368L53.9154 66.5691L54.4511 66.5475C55.1975 66.5177 55.8753 66.2395 56.4088 65.7952L56.5547 65.7501L56.6497 65.5737C57.0817 65.1348 57.3905 64.5755 57.5239 63.953L57.5971 63.817V62.0938H58.1774L58.1936 62.5033L58.2176 63.0998C58.3033 65.2601 56.6251 67.088 54.4764 67.1744L39.9538 67.7581C39.9012 67.7603 39.8482 67.7616 39.7958 67.7616Z" fill="#371A45"/>
<path d="M62.8344 50.0629C62.7169 49.7061 62.6069 49.3483 62.4713 48.9989C62.2101 48.2648 61.8973 47.5517 61.5682 46.8515C61.264 46.2111 60.9268 45.5882 60.5659 44.9826C64.4007 42.3031 67.3351 39.5149 69.5038 37.0799C70.4715 37.5968 71.608 38.0101 72.93 38.2115C70.2661 42.3225 66.4301 47.5737 62.8344 50.0629Z" fill="#CBC3CE"/>
<path d="M63.0222 50.6913C62.9673 50.4955 62.9112 50.3006 62.8489 50.1073C62.8439 50.0926 62.8392 50.0776 62.8342 50.0628C66.43 47.5736 70.266 42.3224 72.9299 38.2115C73.1558 38.2459 73.3867 38.2741 73.6233 38.2957C70.8905 42.5433 66.8404 48.1275 63.0222 50.6913Z" fill="#371A45"/>
<path d="M73.6765 37.0422C72.3882 36.9169 71.2834 36.5669 70.3481 36.1051C73.3218 32.5747 74.5768 30.0027 74.5768 30.0027C77.1027 29.4221 78.5948 28.1993 79.4684 26.8583C79.7146 26.7862 79.9461 26.6822 80.1608 26.5594C79.9742 26.6064 79.785 26.6381 79.598 26.6509C80.4662 25.2037 80.6492 23.6519 80.6567 22.6411C81.5707 23.9602 82.2526 25.8291 81.2463 27.9765C79.2589 32.2182 76.9381 32.2 76.9378 32.2003C76.925 32.1994 76.9126 32.199 76.8998 32.199C76.6714 32.199 76.4638 32.3241 76.3544 32.5258C76.3267 32.5769 75.2936 34.4699 73.6765 37.0422Z" fill="#CBC3CE"/>
<path d="M74.3393 37.1673C74.2536 37.1125 74.1533 37.0783 74.0445 37.0714C73.9202 37.0636 73.7977 37.0539 73.6768 37.0423C75.2939 34.47 76.327 32.5769 76.3547 32.5259C76.4641 32.3241 76.6716 32.1991 76.9001 32.1991C76.9129 32.1991 76.9253 32.1994 76.9381 32.2003C76.9384 32.2 79.2592 32.2182 81.2465 27.9766C82.2528 25.8291 81.571 23.9602 80.6569 22.6412C80.6616 21.9929 80.594 21.5671 80.5887 21.5339C81.8352 22.9673 83.1613 25.361 81.8103 28.2435C79.7276 32.6882 77.2338 32.8263 76.9322 32.8263C76.9122 32.8263 76.9019 32.8257 76.9019 32.8257C76.9019 32.8257 75.9153 34.6458 74.3393 37.1673Z" fill="#371A45"/>
<path d="M46.5816 67.1859C46.436 67.1859 46.3039 67.1285 46.2061 67.0351L46.9967 66.9932C46.8967 67.111 46.7477 67.1859 46.5816 67.1859Z" fill="#371A45"/>
<path d="M62.5753 52.0422C62.3045 52.0422 62.0548 51.8639 61.9751 51.5894C61.9673 51.5631 61.9613 51.5365 61.9573 51.5099L61.9517 51.4735C61.9489 51.4528 61.9458 51.4322 61.9426 51.4118C61.8922 51.0643 61.8507 50.7134 61.789 50.3663C61.7208 49.9994 61.6615 49.6284 61.5743 49.264C61.421 48.5293 61.2146 47.8052 60.9896 47.0849C60.7612 46.3653 60.491 45.6578 60.1897 44.9613C60.0441 44.6286 59.8914 44.298 59.7284 43.9725L59.7209 43.8011L60.4268 45.0794C60.4733 45.0471 60.5197 45.0149 60.5658 44.9826C60.9267 45.5882 61.2639 46.2111 61.568 46.8515C61.8971 47.5518 62.21 48.2649 62.4712 48.999C62.6068 49.3483 62.7168 49.7061 62.8343 50.063C62.8392 50.0777 62.8439 50.0927 62.8489 50.1075C62.9112 50.3008 62.9673 50.4957 63.0222 50.6915C62.862 50.7993 62.7024 50.9011 62.5429 50.9979C62.5429 50.9979 62.565 51.3789 62.6027 52.0416C62.5937 52.0419 62.5843 52.0422 62.5753 52.0422Z" fill="#371A45"/>
<path d="M73.6233 38.2957C73.3867 38.2741 73.1558 38.2459 72.9299 38.2114C71.6079 38.01 70.4713 37.5967 69.5037 37.0797C69.7991 36.748 70.0808 36.4224 70.3482 36.105C71.2835 36.5669 72.3882 36.9168 73.6766 37.0422C73.7975 37.0537 73.9199 37.0635 74.0443 37.0713C74.1531 37.0782 74.2534 37.1123 74.3391 37.1672C74.1125 37.5297 73.8732 37.9072 73.6233 38.2957Z" fill="#371A45"/>
<path d="M79.4685 26.8583C79.5134 26.7894 79.5564 26.7205 79.5981 26.6509C79.7851 26.6381 79.9743 26.6064 80.161 26.5594C79.9463 26.6823 79.7147 26.7863 79.4685 26.8583Z" fill="#371A45"/>
<path d="M63.7396 85.5466C63.6748 85.0973 63.6056 84.6308 63.5327 84.1521C63.8188 83.9353 64.099 83.6993 64.3713 83.4434C64.4483 83.371 64.5241 83.2974 64.5998 83.2218C64.6967 83.1247 64.8176 83.0664 64.9432 83.0467C65.0155 83.5154 65.0875 83.9744 65.1579 84.4193C64.975 84.5891 64.7899 84.7505 64.602 84.9043C64.3193 85.1356 64.0313 85.3492 63.7396 85.5466Z" fill="#371A45"/>
<path d="M64.3971 90.5536C64.3971 90.5536 64.3924 90.512 64.3831 90.4327C64.4887 90.3901 64.5953 90.3494 64.7028 90.3102C64.9334 90.2266 65.1681 90.1492 65.4102 90.0846C65.4299 90.079 65.4498 90.0737 65.4694 90.0683C65.571 90.0411 65.6745 90.0176 65.7792 89.9944C65.8428 89.9819 65.9045 89.9678 65.9712 89.9571C66.0089 89.9508 66.0422 89.9449 66.0799 89.9392C66.1152 90.1385 66.1423 90.2927 66.161 90.397C65.2744 90.4941 64.3971 90.5536 64.3971 90.5536Z" fill="#371A45"/>
<path d="M62.6403 53.3329C62.3636 53.3329 62.1109 53.1462 62.0379 52.8642C61.951 52.5296 62.1504 52.1871 62.4836 52.0997L62.6045 52.068C62.6245 52.418 62.6484 52.8438 62.6759 53.3319C62.664 53.3326 62.6522 53.3329 62.6403 53.3329Z" fill="#371A45"/>
<path d="M61.9974 98.6151C59.8271 98.6151 57.305 98.4431 54.5242 97.9531C54.0826 97.8754 53.7542 97.5082 53.7255 97.0605C53.5884 94.9127 53.2873 90.7372 52.8473 87.4991C53.4142 87.5987 54.2157 87.7068 55.1665 87.746C55.9322 92.4933 56.6238 97.1629 62.2735 97.1629C62.4072 97.1629 62.5434 97.1604 62.683 97.1551C68.2998 96.9408 69.0508 94.0812 69.038 92.5202C69.8019 93.4799 70.0652 94.9108 69.82 96.7769C69.7367 97.4107 69.2659 97.9149 68.6479 98.0317C67.2302 98.2996 64.9365 98.6151 61.9974 98.6151ZM54.9537 86.4626C53.9193 86.4084 53.1019 86.2725 52.651 86.1825C52.4845 85.1699 52.3013 84.3221 52.1028 83.7635C51.2663 81.4086 49.6695 78.3181 49.02 77.0952C50.7802 76.8925 52.4914 76.3724 54.0711 75.6236C54.9543 75.2031 55.8004 74.7153 56.5998 74.1657C55.4358 75.6139 53.0932 79.2292 54.3466 83.6654C54.5987 84.5583 54.7873 85.5036 54.9537 86.4626Z" fill="#CBC3CE"/>
<path d="M61.9923 99.2388C59.7937 99.2388 57.2342 99.0662 54.4169 98.5696C53.6939 98.4427 53.1501 97.8364 53.1033 97.1002C52.9696 94.9978 52.6571 90.6321 52.2024 87.3708C52.3573 87.4056 52.5754 87.4514 52.8475 87.499C53.2875 90.7371 53.5886 94.9126 53.7257 97.0604C53.7544 97.5081 54.0828 97.8753 54.5244 97.953C57.3052 98.443 59.8273 98.615 61.9976 98.615C64.9367 98.615 67.2304 98.2995 68.6481 98.0316C69.266 97.9148 69.7369 97.4106 69.8201 96.7768C70.0654 94.9107 69.8021 93.4798 69.0382 92.5201C69.0332 91.9261 68.9176 91.5201 68.9176 91.5201C69.9632 92.3582 70.8233 93.9279 70.4384 96.8589C70.32 97.7565 69.6484 98.4803 68.7634 98.6479C67.38 98.9089 65.0311 99.2388 61.9923 99.2388ZM52.6512 86.1825C52.4109 86.1345 52.2744 86.0994 52.2647 86.0969C52.2114 86.0828 52.1581 86.0759 52.1055 86.0759C52.0715 86.0759 52.0378 86.0787 52.0048 86.0844C51.8543 85.2027 51.6907 84.4671 51.5155 83.9739C50.6407 81.5072 48.8765 78.1488 48.3464 77.1581C48.4892 77.1481 48.6319 77.1359 48.7743 77.1214C48.8563 77.1133 48.9382 77.1048 49.0202 77.0951C49.6697 78.318 51.2665 81.4085 52.103 83.7634C52.3015 84.322 52.4847 85.1698 52.6512 86.1825Z" fill="#371A45"/>
<path d="M48.3463 77.1583C48.2874 77.048 48.2438 76.9668 48.2183 76.9198L48.1123 76.5564L51.1508 75.7888L53.6845 75.5146L57.1982 73.4859C57.1724 73.5116 56.9349 73.7488 56.5999 74.1658C55.8005 74.7154 54.9544 75.2032 54.0712 75.6237C52.4915 76.3725 50.7803 76.8926 49.0201 77.0953C48.9382 77.105 48.8562 77.1135 48.7742 77.1216C48.6318 77.136 48.4891 77.1482 48.3463 77.1583Z" fill="#371A45"/>
<path d="M55.1666 87.746C54.2157 87.7069 53.4142 87.5988 52.8473 87.4991C52.5753 87.4515 52.3571 87.4058 52.2022 87.371C52.139 86.9176 52.0732 86.4862 52.0046 86.0845C52.0377 86.0789 52.0713 86.0761 52.1053 86.0761C52.158 86.0761 52.2113 86.083 52.2645 86.0971C52.2742 86.0996 52.4107 86.1347 52.651 86.1826C53.1019 86.2725 53.9194 86.4085 54.9537 86.4627C55.0279 86.8888 55.0974 87.318 55.1666 87.746Z" fill="#371A45"/>
<path d="M39.8496 98.7471C36.573 98.7471 33.6685 98.6538 33.1596 98.6365C33.038 98.6321 32.9352 98.5513 32.9034 98.4357C32.7074 97.7166 32.358 96.0191 32.9798 94.7339C35.4972 96.6113 37.6924 97.4688 39.5015 97.4688C43.0464 97.4688 45.1117 94.1797 45.231 88.8305C45.2379 88.5172 45.2373 88.2079 45.2289 87.9024C46.1389 87.5528 46.9853 87.0963 47.7594 86.5367C47.942 89.6391 48.2403 92.7488 48.6535 95.8446C48.7423 96.5088 48.5597 97.1611 48.1396 97.6809C47.7201 98.1998 47.1243 98.5121 46.4614 98.5607C44.5168 98.7033 42.0959 98.7471 39.8496 98.7471ZM45.1472 86.5837C44.6022 80.9566 41.6846 76.897 40.5676 75.5278C41.4278 75.9784 42.3365 76.3459 43.2786 76.6197C44.5856 77.0004 45.9556 77.1943 47.3265 77.1943C47.4051 77.1943 47.4839 77.1937 47.5624 77.1925C47.5179 79.7817 47.5571 82.3906 47.6787 85.0071C46.8831 85.6945 46.0273 86.208 45.1472 86.5837Z" fill="#CBC3CE"/>
<path d="M39.7959 99.374C37.1777 99.374 34.6777 99.3151 33.1379 99.2621C32.7453 99.2496 32.4071 98.9817 32.3027 98.601C32.0425 97.6438 31.7075 95.7953 32.4757 94.3494C32.4944 94.3619 32.5131 94.3776 32.5318 94.3917C32.6823 94.5095 32.8313 94.6232 32.9799 94.7338C32.3582 96.019 32.7075 97.7165 32.9036 98.4356C32.9354 98.5512 33.0382 98.632 33.1597 98.6364C33.6687 98.6537 36.5732 98.747 39.8498 98.747C42.0961 98.747 44.5169 98.7032 46.4616 98.5606C47.1244 98.512 47.7203 98.1997 48.1398 97.6808C48.5599 97.161 48.7425 96.5087 48.6537 95.8445C48.2404 92.7486 47.9422 89.639 47.7596 86.5366C47.9631 86.3893 48.1616 86.2349 48.3551 86.0732C48.5352 89.326 48.8435 92.5544 49.2716 95.7608C49.5023 97.4903 48.2386 99.0585 46.5074 99.1853C44.5786 99.3267 42.14 99.374 39.7959 99.374ZM47.6788 85.007C47.5573 82.3905 47.518 79.7816 47.5626 77.1923C47.7708 77.1889 47.979 77.1811 48.1871 77.1685C48.1423 79.6779 48.1762 82.1721 48.2847 84.6526C48.1448 84.6592 48.0058 84.7131 47.8942 84.8156C47.8228 84.8807 47.7511 84.9446 47.6788 85.007Z" fill="#371A45"/>
<path d="M47.3265 77.1943C45.9556 77.1943 44.5856 77.0003 43.2786 76.6197C42.3365 76.3458 41.4278 75.9783 40.5676 75.5278C40.2974 75.1963 40.1326 75.0227 40.1326 75.0227L48.1122 76.5564C48.1122 76.5564 48.1387 76.7741 48.187 77.1626C48.187 77.1645 48.187 77.1667 48.187 77.1686C47.9788 77.1811 47.7706 77.1889 47.5624 77.1924C47.4839 77.1936 47.4051 77.1943 47.3265 77.1943Z" fill="#371A45"/>
<path d="M45.2289 87.9023C45.2167 87.4543 45.189 87.0141 45.1472 86.5836C46.0273 86.2079 46.8831 85.6944 47.6787 85.007C47.751 84.9447 47.8227 84.8808 47.894 84.8156C48.0056 84.7131 48.1446 84.6592 48.2845 84.6527C48.3054 85.1264 48.3288 85.6004 48.355 86.0732C48.1614 86.2349 47.9629 86.3894 47.7594 86.5366C46.9853 87.0962 46.1389 87.5527 45.2289 87.9023Z" fill="#371A45"/>
<path d="M39.805 66.5081C38.3911 66.5081 37.2037 65.3836 37.1464 63.9471L37.0308 61.0443C40.4769 62.6754 43.4973 63.5833 46.036 63.6717V66.2597L39.9038 66.5062C39.8708 66.5075 39.8377 66.5081 39.805 66.5081ZM47.1267 66.2158V63.657C51.7982 63.354 54.6012 59.8765 55.1113 52.5005C55.9805 52.9103 56.5991 53.7817 56.6399 54.8106L56.9715 63.15C57.0301 64.6198 55.8882 65.8633 54.4263 65.9222L47.1267 66.2158Z" fill="#CBC3CE"/>
<path d="M39.7937 67.1347C39.5391 67.1347 39.2907 67.1053 39.052 67.0495L39.0464 67.0473C39.0464 67.0473 39.0464 67.0476 39.0464 67.0479C37.9756 66.7957 37.0999 66.0127 36.7219 64.9797L36.7387 64.9788V63.5304L36.49 60.7842C36.6714 60.8728 36.8515 60.9593 37.0307 61.0442L37.1463 63.9471C37.2037 65.3836 38.391 66.5081 39.8049 66.5081C39.8377 66.5081 39.8707 66.5075 39.9037 66.5062L46.0359 66.2596V66.6375C46.0359 66.7261 46.0568 66.8098 46.0939 66.8837L39.9283 67.1319C39.8835 67.1338 39.8383 67.1347 39.7937 67.1347ZM47.0868 66.844C47.1126 66.78 47.1267 66.7105 47.1267 66.6375V66.2158L54.4262 65.9222C55.8882 65.8633 57.03 64.6197 56.9714 63.15L56.6398 54.8105C56.599 53.7816 55.9804 52.9103 55.1112 52.5005C55.1265 52.2824 55.1393 52.0609 55.1505 51.8359C56.341 52.2902 57.2073 53.4244 57.2619 54.7858L57.5938 63.1246C57.6053 63.4091 57.5804 63.687 57.5237 63.953L56.6495 65.5738C56.5732 65.6515 56.4927 65.7257 56.4086 65.7953L53.9152 66.5692L47.0868 66.844Z" fill="#371A45"/>
<path d="M46.0941 66.8838C46.057 66.8098 46.0361 66.7262 46.0361 66.6375V66.2597V63.6717C46.1723 63.6764 46.3073 63.6789 46.4406 63.6789C46.6734 63.6789 46.9025 63.6717 47.1269 63.657V66.2158V66.6375C47.1269 66.7105 47.1129 66.7801 47.087 66.844L46.0941 66.8838Z" fill="#371A45"/>
<path d="M39.0522 67.0494C39.0504 67.0488 39.0485 67.0484 39.0466 67.0478C39.0466 67.0475 39.0466 67.0472 39.0466 67.0472L39.0522 67.0494ZM53.9154 66.5691L56.4088 65.7952C55.8753 66.2395 55.1975 66.5177 54.4511 66.5474L53.9154 66.5691ZM56.6497 65.5737L57.5239 63.9529C57.3905 64.5755 57.0817 65.1347 56.6497 65.5737Z" fill="#371A45"/>
<path d="M29.8824 65.378C29.8223 64.7285 29.7684 64.0743 29.7207 63.4167L35.8719 63.2728L35.9009 63.9972C35.9149 64.3519 35.9757 64.694 36.077 65.0174L29.8824 65.378Z" fill="#CBC3CE"/>
<path d="M29.3302 65.4102L29.1177 63.4059C29.2015 63.4181 29.2872 63.4241 29.3735 63.4241C29.3879 63.4241 29.4022 63.4238 29.4165 63.4234L29.7207 63.4165C29.7684 64.0742 29.8223 64.7284 29.8824 65.3779L29.3302 65.4102Z" fill="#371A45"/>
<path d="M29.3663 62.1711C29.2298 62.1711 29.0886 62.1126 28.9858 62.0114C28.8776 61.9051 28.8181 61.7629 28.8181 61.6113V61.0993L34.207 60.7365C34.207 60.7365 35.1027 60.5501 35.74 59.9516L35.8223 62.0201L29.3878 62.1705C29.3806 62.1711 29.3735 62.1711 29.3663 62.1711Z" fill="#CBC3CE"/>
<path d="M29.3735 63.4241C29.2872 63.4241 29.2015 63.4182 29.1177 63.406L29.0528 62.7975L28.1946 62.3554V61.1413L28.8179 61.0994V61.6113C28.8179 61.7629 28.8774 61.9052 28.9855 62.0114C29.0884 62.1126 29.2295 62.1712 29.366 62.1712C29.3732 62.1712 29.3804 62.1712 29.3875 62.1706L35.822 62.0202L35.8719 63.2728L29.7207 63.4166L29.4165 63.4235C29.4022 63.4238 29.3879 63.4241 29.3735 63.4241Z" fill="#371A45"/>
<path d="M36.0769 65.0174C35.9757 64.6941 35.9149 64.3519 35.9009 63.9972L35.8719 63.2729L35.822 62.0202L35.7397 59.9518C36.0106 59.6973 36.2349 59.3687 36.3238 58.9482L36.4902 60.7842C36.4584 60.7686 36.426 60.7529 36.3945 60.7372L36.5238 63.9722C36.5379 64.3259 36.6067 64.6646 36.722 64.9798L36.0769 65.0174Z" fill="#371A45"/>
<path d="M36.7221 64.9797C36.6068 64.6645 36.5379 64.3258 36.5239 63.9721L36.3945 60.7371C36.426 60.7528 36.4584 60.7684 36.4902 60.7841L36.7389 63.5303V64.9787L36.7221 64.9797Z" fill="#371A45"/>
<path d="M29.8479 74.1789C29.6653 74.1447 29.491 74.1068 29.3252 74.0655C28.3498 73.8217 27.6371 72.9322 27.5913 71.9024L27.543 70.8211C28.1229 70.6494 28.6932 70.3618 29.1482 69.8931C29.3496 71.3437 29.583 72.7727 29.8479 74.1789Z" fill="#CBC3CE"/>
<path d="M29.9744 74.8378C29.7061 74.793 29.4617 74.7429 29.2392 74.689C27.9553 74.3788 27.0281 73.2556 26.9689 71.9303L26.9253 70.9637C27.1294 70.9289 27.3367 70.8823 27.543 70.8212L27.5913 71.9024C27.6371 72.9323 28.3498 73.8218 29.3252 74.0655C29.491 74.1069 29.6653 74.1448 29.8479 74.1789C29.8893 74.3992 29.9314 74.6188 29.9744 74.8378Z" fill="#371A45"/>
<path d="M30.665 74.9333C30.4184 74.9055 30.1888 74.8735 29.9744 74.8378C29.9314 74.6188 29.8893 74.3992 29.8478 74.1789C29.5829 72.7727 29.3495 71.3437 29.1482 69.8931C29.4343 69.5986 29.6749 69.2323 29.8438 68.7783L30.665 74.9333Z" fill="#371A45"/>
<path d="M63.8721 64.5132C63.8332 63.6437 63.7911 62.7536 63.7478 61.8654C64.1102 61.7281 64.4325 61.4907 64.6706 61.177C64.9311 60.8339 65.0776 60.4179 65.095 59.9918H66.815L66.9269 63.6146C66.9393 64.0185 66.623 64.365 66.2216 64.3866L63.8721 64.5132Z" fill="#CBC3CE"/>
<path d="M66.6351 64.9362H63.8911C63.8848 64.7958 63.8783 64.6545 63.8721 64.5132L66.2215 64.3866C66.6229 64.365 66.9393 64.0185 66.9268 63.6146L66.8149 59.9918H67.4385L67.3556 64.3443L66.6351 64.9362Z" fill="#371A45"/>
<path d="M63.891 64.9362H63.579L63.1714 61.9938L63.229 61.9879C63.4076 61.9697 63.5818 61.928 63.7476 61.8654C63.7909 62.7536 63.833 63.6437 63.872 64.5132C63.8782 64.6545 63.8847 64.7958 63.891 64.9362Z" fill="#371A45"/>
<path d="M63.1716 61.9939L63.1086 61.5393C63.1289 61.5427 63.1492 61.5446 63.1694 61.5446C63.2673 61.5446 63.3657 61.5048 63.463 61.4437L63.8572 61.3372L63.9906 60.9841C64.0249 60.9524 64.0588 60.9224 64.0919 60.8954C64.2598 60.7588 64.3387 60.3929 64.3652 59.9918H65.0951C65.0776 60.4179 64.9311 60.834 64.6706 61.1771C64.4325 61.4907 64.1103 61.7282 63.7478 61.8654C63.582 61.9281 63.4078 61.9698 63.2292 61.9879L63.1716 61.9939Z" fill="#371A45"/>
<path d="M63.1694 61.5446C63.1492 61.5446 63.1289 61.5427 63.1086 61.5393L63.463 61.4437C63.3657 61.5048 63.2673 61.5446 63.1694 61.5446ZM63.9906 60.9841L64.3649 59.9918H64.3652C64.3387 60.3929 64.2598 60.7588 64.0919 60.8954C64.0588 60.9224 64.0249 60.9525 63.9906 60.9841Z" fill="#371A45"/>
<path d="M64.1956 72.1619C64.1389 71.4334 64.1006 70.7632 64.0856 70.1723C64.0775 69.8568 64.0679 69.5228 64.0566 69.1725C64.8513 69.05 65.4905 68.4641 65.9919 67.4678C66.0134 68.2198 66.0215 69.077 65.9947 69.9339C65.9617 71.0026 65.3721 71.7345 64.1956 72.1619Z" fill="#CBC3CE"/>
<path d="M64.2349 72.644C64.2209 72.4811 64.2078 72.3198 64.1953 72.1619C65.3718 71.7345 65.9614 71.0026 65.9944 69.9339C66.0212 69.077 66.0131 68.2198 65.9916 67.4678C66.1178 67.2168 66.2356 66.9396 66.3447 66.6375L66.6174 69.0917C66.6563 69.405 66.3858 71.0543 66.3017 71.2329C66.2434 71.3566 64.9956 72.1615 64.2349 72.644Z" fill="#371A45"/>
<path d="M63.6569 73.0082L63.4659 70.3175C63.4643 70.274 63.4631 70.231 63.4622 70.1884C63.4541 69.8692 63.4441 69.5311 63.4329 69.1767C63.5363 69.1902 63.637 69.1968 63.7361 69.1968C63.8455 69.1968 63.9524 69.1886 64.0565 69.1727C64.0677 69.5229 64.0773 69.8569 64.0854 70.1724C64.1004 70.7634 64.1387 71.4335 64.1955 72.162C64.2079 72.3199 64.221 72.4812 64.235 72.6442C63.8981 72.8578 63.6569 73.0082 63.6569 73.0082Z" fill="#371A45"/>
<path d="M63.4664 70.3174L63.3843 69.17C63.4006 69.1725 63.4169 69.1747 63.4332 69.1766C63.4444 69.531 63.4545 69.869 63.4626 70.1883C63.4635 70.2309 63.4648 70.2738 63.4664 70.3174Z" fill="#371A45"/>
<path d="M46.6545 48.3432C41.5183 48.3438 36.2715 46.2735 33.3171 42.071C36.4423 43.7052 39.9049 44.5593 43.4661 44.5593C44.1685 44.5593 44.8747 44.5261 45.5831 44.4591C47.9104 44.2388 50.1489 43.6639 52.2385 42.7662C55.3714 41.9472 58.2429 40.479 60.737 38.4691C59.5019 45.0099 53.1684 48.3426 46.6545 48.3432Z" fill="#CBC3CE"/>
<path d="M52.2385 42.7661C53.4954 42.2263 54.6989 41.5693 55.8349 40.8029C57.5461 40.0014 59.1694 38.9728 60.6653 37.7243L60.857 37.6961C60.8249 37.9586 60.7847 38.2162 60.737 38.469C58.2429 40.4789 55.3715 41.9471 52.2385 42.7661Z" fill="#371A45"/>
<path d="M43.466 44.5593C39.9049 44.5593 36.4422 43.7052 33.3171 42.0709C33.2622 41.9932 33.2083 41.9143 33.155 41.835L33.7471 41.7473C35.282 42.5569 38.3875 43.8361 42.6841 43.8361C45.2623 43.8361 48.2684 43.3762 51.623 42.0778C51.8629 42.1452 51.9938 42.1828 51.9938 42.1828C53.3105 41.8441 54.5957 41.3832 55.8348 40.803C54.6989 41.5693 53.4953 42.2263 52.2384 42.7662C50.1489 43.6638 47.9104 44.2387 45.583 44.459C44.8747 44.5261 44.1685 44.5593 43.466 44.5593Z" fill="#371A45"/>
</svg>

